G04 #@! TF.GenerationSoftware,KiCad,Pcbnew,5.1.5-52549c5~84~ubuntu18.04.1*
G04 #@! TF.CreationDate,2020-01-16T21:55:41+01:00*
G04 #@! TF.ProjectId,incinerator,696e6369-6e65-4726-9174-6f722e6b6963,v00*
G04 #@! TF.SameCoordinates,Original*
G04 #@! TF.FileFunction,Soldermask,Top*
G04 #@! TF.FilePolarity,Negative*
%FSLAX46Y46*%
G04 Gerber Fmt 4.6, Leading zero omitted, Abs format (unit mm)*
G04 Created by KiCad (PCBNEW 5.1.5-52549c5~84~ubuntu18.04.1) date 2020-01-16 21:55:41*
%MOMM*%
%LPD*%
G04 APERTURE LIST*
%ADD10C,0.100000*%
G04 APERTURE END LIST*
D10*
G36*
X173621000Y-124853000D02*
G01*
X171819000Y-124853000D01*
X171819000Y-123051000D01*
X173621000Y-123051000D01*
X173621000Y-124853000D01*
G37*
G36*
X114040228Y-123093703D02*
G01*
X114195100Y-123157853D01*
X114334481Y-123250985D01*
X114453015Y-123369519D01*
X114546147Y-123508900D01*
X114610297Y-123663772D01*
X114643000Y-123828184D01*
X114643000Y-123995816D01*
X114610297Y-124160228D01*
X114546147Y-124315100D01*
X114453015Y-124454481D01*
X114334481Y-124573015D01*
X114195100Y-124666147D01*
X114040228Y-124730297D01*
X113875816Y-124763000D01*
X113708184Y-124763000D01*
X113543772Y-124730297D01*
X113388900Y-124666147D01*
X113249519Y-124573015D01*
X113130985Y-124454481D01*
X113037853Y-124315100D01*
X112973703Y-124160228D01*
X112941000Y-123995816D01*
X112941000Y-123828184D01*
X112973703Y-123663772D01*
X113037853Y-123508900D01*
X113130985Y-123369519D01*
X113249519Y-123250985D01*
X113388900Y-123157853D01*
X113543772Y-123093703D01*
X113708184Y-123061000D01*
X113875816Y-123061000D01*
X114040228Y-123093703D01*
G37*
G36*
X106220585Y-121160802D02*
G01*
X106370410Y-121190604D01*
X106652674Y-121307521D01*
X106906705Y-121477259D01*
X107122741Y-121693295D01*
X107292479Y-121947326D01*
X107409396Y-122229590D01*
X107469000Y-122529240D01*
X107469000Y-122834760D01*
X107409396Y-123134410D01*
X107292479Y-123416674D01*
X107122741Y-123670705D01*
X106906705Y-123886741D01*
X106652674Y-124056479D01*
X106370410Y-124173396D01*
X106220585Y-124203198D01*
X106070761Y-124233000D01*
X105765239Y-124233000D01*
X105615415Y-124203198D01*
X105465590Y-124173396D01*
X105183326Y-124056479D01*
X104929295Y-123886741D01*
X104713259Y-123670705D01*
X104543521Y-123416674D01*
X104426604Y-123134410D01*
X104367000Y-122834760D01*
X104367000Y-122529240D01*
X104426604Y-122229590D01*
X104543521Y-121947326D01*
X104713259Y-121693295D01*
X104929295Y-121477259D01*
X105183326Y-121307521D01*
X105465590Y-121190604D01*
X105615415Y-121160802D01*
X105765239Y-121131000D01*
X106070761Y-121131000D01*
X106220585Y-121160802D01*
G37*
G36*
X172833512Y-120515927D02*
G01*
X172982812Y-120545624D01*
X173146784Y-120613544D01*
X173294354Y-120712147D01*
X173419853Y-120837646D01*
X173518456Y-120985216D01*
X173586376Y-121149188D01*
X173621000Y-121323259D01*
X173621000Y-121500741D01*
X173586376Y-121674812D01*
X173518456Y-121838784D01*
X173419853Y-121986354D01*
X173294354Y-122111853D01*
X173146784Y-122210456D01*
X172982812Y-122278376D01*
X172833512Y-122308073D01*
X172808742Y-122313000D01*
X172631258Y-122313000D01*
X172606488Y-122308073D01*
X172457188Y-122278376D01*
X172293216Y-122210456D01*
X172145646Y-122111853D01*
X172020147Y-121986354D01*
X171921544Y-121838784D01*
X171853624Y-121674812D01*
X171819000Y-121500741D01*
X171819000Y-121323259D01*
X171853624Y-121149188D01*
X171921544Y-120985216D01*
X172020147Y-120837646D01*
X172145646Y-120712147D01*
X172293216Y-120613544D01*
X172457188Y-120545624D01*
X172606488Y-120515927D01*
X172631258Y-120511000D01*
X172808742Y-120511000D01*
X172833512Y-120515927D01*
G37*
G36*
X114643000Y-122263000D02*
G01*
X112941000Y-122263000D01*
X112941000Y-120561000D01*
X114643000Y-120561000D01*
X114643000Y-122263000D01*
G37*
G36*
X172833512Y-117975927D02*
G01*
X172982812Y-118005624D01*
X173146784Y-118073544D01*
X173294354Y-118172147D01*
X173419853Y-118297646D01*
X173518456Y-118445216D01*
X173586376Y-118609188D01*
X173621000Y-118783259D01*
X173621000Y-118960741D01*
X173586376Y-119134812D01*
X173518456Y-119298784D01*
X173419853Y-119446354D01*
X173294354Y-119571853D01*
X173146784Y-119670456D01*
X172982812Y-119738376D01*
X172833512Y-119768073D01*
X172808742Y-119773000D01*
X172631258Y-119773000D01*
X172606488Y-119768073D01*
X172457188Y-119738376D01*
X172293216Y-119670456D01*
X172145646Y-119571853D01*
X172020147Y-119446354D01*
X171921544Y-119298784D01*
X171853624Y-119134812D01*
X171819000Y-118960741D01*
X171819000Y-118783259D01*
X171853624Y-118609188D01*
X171921544Y-118445216D01*
X172020147Y-118297646D01*
X172145646Y-118172147D01*
X172293216Y-118073544D01*
X172457188Y-118005624D01*
X172606488Y-117975927D01*
X172631258Y-117971000D01*
X172808742Y-117971000D01*
X172833512Y-117975927D01*
G37*
G36*
X107469000Y-119153000D02*
G01*
X104367000Y-119153000D01*
X104367000Y-116051000D01*
X107469000Y-116051000D01*
X107469000Y-119153000D01*
G37*
G36*
X121061023Y-116412590D02*
G01*
X121161682Y-116443125D01*
X121212013Y-116458392D01*
X121351165Y-116532771D01*
X121473133Y-116632867D01*
X121573229Y-116754835D01*
X121647608Y-116893987D01*
X121647608Y-116893988D01*
X121693410Y-117044977D01*
X121705000Y-117162655D01*
X121705000Y-118041345D01*
X121693410Y-118159023D01*
X121662875Y-118259682D01*
X121647608Y-118310013D01*
X121575340Y-118445216D01*
X121573229Y-118449165D01*
X121473133Y-118571133D01*
X121351164Y-118671229D01*
X121212012Y-118745608D01*
X121161681Y-118760875D01*
X121061022Y-118791410D01*
X120904000Y-118806875D01*
X120746977Y-118791410D01*
X120646318Y-118760875D01*
X120595987Y-118745608D01*
X120456835Y-118671229D01*
X120381239Y-118609189D01*
X120334867Y-118571133D01*
X120234771Y-118449164D01*
X120160393Y-118310013D01*
X120160392Y-118310012D01*
X120118572Y-118172148D01*
X120114590Y-118159022D01*
X120103000Y-118041344D01*
X120103000Y-117162655D01*
X120114591Y-117044977D01*
X120160393Y-116893988D01*
X120160393Y-116893987D01*
X120234772Y-116754835D01*
X120334868Y-116632867D01*
X120456836Y-116532771D01*
X120595988Y-116458392D01*
X120646319Y-116443125D01*
X120746978Y-116412590D01*
X120904000Y-116397125D01*
X121061023Y-116412590D01*
G37*
G36*
X123601023Y-116412590D02*
G01*
X123701682Y-116443125D01*
X123752013Y-116458392D01*
X123891165Y-116532771D01*
X124013133Y-116632867D01*
X124113229Y-116754835D01*
X124187608Y-116893987D01*
X124187608Y-116893988D01*
X124233410Y-117044977D01*
X124245000Y-117162655D01*
X124245000Y-118041345D01*
X124233410Y-118159023D01*
X124202875Y-118259682D01*
X124187608Y-118310013D01*
X124115340Y-118445216D01*
X124113229Y-118449165D01*
X124013133Y-118571133D01*
X123891164Y-118671229D01*
X123752012Y-118745608D01*
X123701681Y-118760875D01*
X123601022Y-118791410D01*
X123444000Y-118806875D01*
X123286977Y-118791410D01*
X123186318Y-118760875D01*
X123135987Y-118745608D01*
X122996835Y-118671229D01*
X122921239Y-118609189D01*
X122874867Y-118571133D01*
X122774771Y-118449164D01*
X122700393Y-118310013D01*
X122700392Y-118310012D01*
X122658572Y-118172148D01*
X122654590Y-118159022D01*
X122643000Y-118041344D01*
X122643000Y-117162655D01*
X122654591Y-117044977D01*
X122700393Y-116893988D01*
X122700393Y-116893987D01*
X122774772Y-116754835D01*
X122874868Y-116632867D01*
X122996836Y-116532771D01*
X123135988Y-116458392D01*
X123186319Y-116443125D01*
X123286978Y-116412590D01*
X123444000Y-116397125D01*
X123601023Y-116412590D01*
G37*
G36*
X126785000Y-118803000D02*
G01*
X125183000Y-118803000D01*
X125183000Y-116401000D01*
X126785000Y-116401000D01*
X126785000Y-118803000D01*
G37*
G36*
X172833512Y-115435927D02*
G01*
X172982812Y-115465624D01*
X173146784Y-115533544D01*
X173294354Y-115632147D01*
X173419853Y-115757646D01*
X173518456Y-115905216D01*
X173586376Y-116069188D01*
X173621000Y-116243259D01*
X173621000Y-116420741D01*
X173586376Y-116594812D01*
X173518456Y-116758784D01*
X173419853Y-116906354D01*
X173294354Y-117031853D01*
X173146784Y-117130456D01*
X172982812Y-117198376D01*
X172833512Y-117228073D01*
X172808742Y-117233000D01*
X172631258Y-117233000D01*
X172606488Y-117228073D01*
X172457188Y-117198376D01*
X172293216Y-117130456D01*
X172145646Y-117031853D01*
X172020147Y-116906354D01*
X171921544Y-116758784D01*
X171853624Y-116594812D01*
X171819000Y-116420741D01*
X171819000Y-116243259D01*
X171853624Y-116069188D01*
X171921544Y-115905216D01*
X172020147Y-115757646D01*
X172145646Y-115632147D01*
X172293216Y-115533544D01*
X172457188Y-115465624D01*
X172606488Y-115435927D01*
X172631258Y-115431000D01*
X172808742Y-115431000D01*
X172833512Y-115435927D01*
G37*
G36*
X134106228Y-115005703D02*
G01*
X134261100Y-115069853D01*
X134400481Y-115162985D01*
X134519015Y-115281519D01*
X134612147Y-115420900D01*
X134676297Y-115575772D01*
X134709000Y-115740184D01*
X134709000Y-115907816D01*
X134676297Y-116072228D01*
X134612147Y-116227100D01*
X134519015Y-116366481D01*
X134400481Y-116485015D01*
X134261100Y-116578147D01*
X134106228Y-116642297D01*
X133941816Y-116675000D01*
X133774184Y-116675000D01*
X133609772Y-116642297D01*
X133454900Y-116578147D01*
X133315519Y-116485015D01*
X133196985Y-116366481D01*
X133103853Y-116227100D01*
X133039703Y-116072228D01*
X133007000Y-115907816D01*
X133007000Y-115740184D01*
X133039703Y-115575772D01*
X133103853Y-115420900D01*
X133196985Y-115281519D01*
X133315519Y-115162985D01*
X133454900Y-115069853D01*
X133609772Y-115005703D01*
X133774184Y-114973000D01*
X133941816Y-114973000D01*
X134106228Y-115005703D01*
G37*
G36*
X159506228Y-115005703D02*
G01*
X159661100Y-115069853D01*
X159800481Y-115162985D01*
X159919015Y-115281519D01*
X160012147Y-115420900D01*
X160076297Y-115575772D01*
X160109000Y-115740184D01*
X160109000Y-115907816D01*
X160076297Y-116072228D01*
X160012147Y-116227100D01*
X159919015Y-116366481D01*
X159800481Y-116485015D01*
X159661100Y-116578147D01*
X159506228Y-116642297D01*
X159341816Y-116675000D01*
X159174184Y-116675000D01*
X159009772Y-116642297D01*
X158854900Y-116578147D01*
X158715519Y-116485015D01*
X158596985Y-116366481D01*
X158503853Y-116227100D01*
X158439703Y-116072228D01*
X158407000Y-115907816D01*
X158407000Y-115740184D01*
X158439703Y-115575772D01*
X158503853Y-115420900D01*
X158596985Y-115281519D01*
X158715519Y-115162985D01*
X158854900Y-115069853D01*
X159009772Y-115005703D01*
X159174184Y-114973000D01*
X159341816Y-114973000D01*
X159506228Y-115005703D01*
G37*
G36*
X172833512Y-112895927D02*
G01*
X172982812Y-112925624D01*
X173146784Y-112993544D01*
X173294354Y-113092147D01*
X173419853Y-113217646D01*
X173518456Y-113365216D01*
X173586376Y-113529188D01*
X173621000Y-113703259D01*
X173621000Y-113880741D01*
X173586376Y-114054812D01*
X173518456Y-114218784D01*
X173419853Y-114366354D01*
X173294354Y-114491853D01*
X173146784Y-114590456D01*
X172982812Y-114658376D01*
X172833512Y-114688073D01*
X172808742Y-114693000D01*
X172631258Y-114693000D01*
X172606488Y-114688073D01*
X172457188Y-114658376D01*
X172293216Y-114590456D01*
X172145646Y-114491853D01*
X172020147Y-114366354D01*
X171921544Y-114218784D01*
X171853624Y-114054812D01*
X171819000Y-113880741D01*
X171819000Y-113703259D01*
X171853624Y-113529188D01*
X171921544Y-113365216D01*
X172020147Y-113217646D01*
X172145646Y-113092147D01*
X172293216Y-112993544D01*
X172457188Y-112925624D01*
X172606488Y-112895927D01*
X172631258Y-112891000D01*
X172808742Y-112891000D01*
X172833512Y-112895927D01*
G37*
G36*
X111984549Y-112155116D02*
G01*
X112095734Y-112177232D01*
X112305203Y-112263997D01*
X112493720Y-112389960D01*
X112654040Y-112550280D01*
X112734767Y-112671097D01*
X112780004Y-112738799D01*
X112805416Y-112800150D01*
X112866768Y-112948266D01*
X112911000Y-113170636D01*
X112911000Y-113397364D01*
X112866768Y-113619734D01*
X112838865Y-113687097D01*
X112781131Y-113826481D01*
X112780003Y-113829203D01*
X112654040Y-114017720D01*
X112493720Y-114178040D01*
X112305203Y-114304003D01*
X112095734Y-114390768D01*
X111984549Y-114412884D01*
X111873365Y-114435000D01*
X111646635Y-114435000D01*
X111535451Y-114412884D01*
X111424266Y-114390768D01*
X111214797Y-114304003D01*
X111026280Y-114178040D01*
X110865960Y-114017720D01*
X110739997Y-113829203D01*
X110738870Y-113826481D01*
X110681135Y-113687097D01*
X110653232Y-113619734D01*
X110609000Y-113397364D01*
X110609000Y-113170636D01*
X110653232Y-112948266D01*
X110714584Y-112800150D01*
X110739996Y-112738799D01*
X110785233Y-112671097D01*
X110865960Y-112550280D01*
X111026280Y-112389960D01*
X111214797Y-112263997D01*
X111424266Y-112177232D01*
X111535451Y-112155116D01*
X111646635Y-112133000D01*
X111873365Y-112133000D01*
X111984549Y-112155116D01*
G37*
G36*
X114939842Y-112380131D02*
G01*
X115028798Y-112388892D01*
X115200004Y-112440827D01*
X115200007Y-112440828D01*
X115357788Y-112525163D01*
X115496087Y-112638663D01*
X115609587Y-112776962D01*
X115693922Y-112934743D01*
X115693923Y-112934746D01*
X115745858Y-113105952D01*
X115763394Y-113284000D01*
X115745858Y-113462048D01*
X115698024Y-113619734D01*
X115693922Y-113633257D01*
X115609587Y-113791038D01*
X115496087Y-113929337D01*
X115357788Y-114042837D01*
X115200007Y-114127172D01*
X115200004Y-114127173D01*
X115028798Y-114179108D01*
X114939842Y-114187869D01*
X114895365Y-114192250D01*
X114720635Y-114192250D01*
X114676158Y-114187869D01*
X114587202Y-114179108D01*
X114415996Y-114127173D01*
X114415993Y-114127172D01*
X114258212Y-114042837D01*
X114119913Y-113929337D01*
X114006413Y-113791038D01*
X113922078Y-113633257D01*
X113917976Y-113619734D01*
X113870142Y-113462048D01*
X113852606Y-113284000D01*
X113870142Y-113105952D01*
X113922077Y-112934746D01*
X113922078Y-112934743D01*
X114006413Y-112776962D01*
X114119913Y-112638663D01*
X114258212Y-112525163D01*
X114415993Y-112440828D01*
X114415996Y-112440827D01*
X114587202Y-112388892D01*
X114676158Y-112380131D01*
X114720635Y-112375750D01*
X114895365Y-112375750D01*
X114939842Y-112380131D01*
G37*
G36*
X159506228Y-112465703D02*
G01*
X159661100Y-112529853D01*
X159800481Y-112622985D01*
X159919015Y-112741519D01*
X160012147Y-112880900D01*
X160076297Y-113035772D01*
X160109000Y-113200184D01*
X160109000Y-113367816D01*
X160076297Y-113532228D01*
X160012147Y-113687100D01*
X159919015Y-113826481D01*
X159800481Y-113945015D01*
X159661100Y-114038147D01*
X159506228Y-114102297D01*
X159341816Y-114135000D01*
X159174184Y-114135000D01*
X159009772Y-114102297D01*
X158854900Y-114038147D01*
X158715519Y-113945015D01*
X158596985Y-113826481D01*
X158503853Y-113687100D01*
X158439703Y-113532228D01*
X158407000Y-113367816D01*
X158407000Y-113200184D01*
X158439703Y-113035772D01*
X158503853Y-112880900D01*
X158596985Y-112741519D01*
X158715519Y-112622985D01*
X158854900Y-112529853D01*
X159009772Y-112465703D01*
X159174184Y-112433000D01*
X159341816Y-112433000D01*
X159506228Y-112465703D01*
G37*
G36*
X134106228Y-112465703D02*
G01*
X134261100Y-112529853D01*
X134400481Y-112622985D01*
X134519015Y-112741519D01*
X134612147Y-112880900D01*
X134676297Y-113035772D01*
X134709000Y-113200184D01*
X134709000Y-113367816D01*
X134676297Y-113532228D01*
X134612147Y-113687100D01*
X134519015Y-113826481D01*
X134400481Y-113945015D01*
X134261100Y-114038147D01*
X134106228Y-114102297D01*
X133941816Y-114135000D01*
X133774184Y-114135000D01*
X133609772Y-114102297D01*
X133454900Y-114038147D01*
X133315519Y-113945015D01*
X133196985Y-113826481D01*
X133103853Y-113687100D01*
X133039703Y-113532228D01*
X133007000Y-113367816D01*
X133007000Y-113200184D01*
X133039703Y-113035772D01*
X133103853Y-112880900D01*
X133196985Y-112741519D01*
X133315519Y-112622985D01*
X133454900Y-112529853D01*
X133609772Y-112465703D01*
X133774184Y-112433000D01*
X133941816Y-112433000D01*
X134106228Y-112465703D01*
G37*
G36*
X106211335Y-110490962D02*
G01*
X106370410Y-110522604D01*
X106652674Y-110639521D01*
X106906705Y-110809259D01*
X107122741Y-111025295D01*
X107292479Y-111279326D01*
X107409396Y-111561590D01*
X107425656Y-111643337D01*
X107465009Y-111841173D01*
X107469000Y-111861240D01*
X107469000Y-112166760D01*
X107409396Y-112466410D01*
X107292479Y-112748674D01*
X107122741Y-113002705D01*
X106906705Y-113218741D01*
X106652674Y-113388479D01*
X106370410Y-113505396D01*
X106250799Y-113529188D01*
X106070761Y-113565000D01*
X105765239Y-113565000D01*
X105585201Y-113529188D01*
X105465590Y-113505396D01*
X105183326Y-113388479D01*
X104929295Y-113218741D01*
X104713259Y-113002705D01*
X104543521Y-112748674D01*
X104426604Y-112466410D01*
X104367000Y-112166760D01*
X104367000Y-111861240D01*
X104370992Y-111841173D01*
X104410344Y-111643337D01*
X104426604Y-111561590D01*
X104543521Y-111279326D01*
X104713259Y-111025295D01*
X104929295Y-110809259D01*
X105183326Y-110639521D01*
X105465590Y-110522604D01*
X105624665Y-110490962D01*
X105765239Y-110463000D01*
X106070761Y-110463000D01*
X106211335Y-110490962D01*
G37*
G36*
X118104228Y-111449703D02*
G01*
X118259100Y-111513853D01*
X118398481Y-111606985D01*
X118517015Y-111725519D01*
X118610147Y-111864900D01*
X118674297Y-112019772D01*
X118707000Y-112184184D01*
X118707000Y-112351816D01*
X118674297Y-112516228D01*
X118610147Y-112671100D01*
X118517015Y-112810481D01*
X118398481Y-112929015D01*
X118259100Y-113022147D01*
X118104228Y-113086297D01*
X117939816Y-113119000D01*
X117772184Y-113119000D01*
X117607772Y-113086297D01*
X117452900Y-113022147D01*
X117313519Y-112929015D01*
X117194985Y-112810481D01*
X117101853Y-112671100D01*
X117037703Y-112516228D01*
X117005000Y-112351816D01*
X117005000Y-112184184D01*
X117037703Y-112019772D01*
X117101853Y-111864900D01*
X117194985Y-111725519D01*
X117313519Y-111606985D01*
X117452900Y-111513853D01*
X117607772Y-111449703D01*
X117772184Y-111417000D01*
X117939816Y-111417000D01*
X118104228Y-111449703D01*
G37*
G36*
X125724228Y-111449703D02*
G01*
X125879100Y-111513853D01*
X126018481Y-111606985D01*
X126137015Y-111725519D01*
X126230147Y-111864900D01*
X126294297Y-112019772D01*
X126327000Y-112184184D01*
X126327000Y-112351816D01*
X126294297Y-112516228D01*
X126230147Y-112671100D01*
X126137015Y-112810481D01*
X126018481Y-112929015D01*
X125879100Y-113022147D01*
X125724228Y-113086297D01*
X125559816Y-113119000D01*
X125392184Y-113119000D01*
X125227772Y-113086297D01*
X125072900Y-113022147D01*
X124933519Y-112929015D01*
X124814985Y-112810481D01*
X124721853Y-112671100D01*
X124657703Y-112516228D01*
X124625000Y-112351816D01*
X124625000Y-112184184D01*
X124657703Y-112019772D01*
X124721853Y-111864900D01*
X124814985Y-111725519D01*
X124933519Y-111606985D01*
X125072900Y-111513853D01*
X125227772Y-111449703D01*
X125392184Y-111417000D01*
X125559816Y-111417000D01*
X125724228Y-111449703D01*
G37*
G36*
X114939842Y-110094131D02*
G01*
X115028798Y-110102892D01*
X115200004Y-110154827D01*
X115200007Y-110154828D01*
X115357788Y-110239163D01*
X115496087Y-110352663D01*
X115609587Y-110490962D01*
X115693922Y-110648743D01*
X115693923Y-110648746D01*
X115745858Y-110819952D01*
X115763394Y-110998000D01*
X115745858Y-111176048D01*
X115712358Y-111286481D01*
X115693922Y-111347257D01*
X115609587Y-111505038D01*
X115496087Y-111643337D01*
X115357788Y-111756837D01*
X115200007Y-111841172D01*
X115200004Y-111841173D01*
X115028798Y-111893108D01*
X114939842Y-111901869D01*
X114895365Y-111906250D01*
X114720635Y-111906250D01*
X114676158Y-111901869D01*
X114587202Y-111893108D01*
X114415996Y-111841173D01*
X114415993Y-111841172D01*
X114258212Y-111756837D01*
X114119913Y-111643337D01*
X114006413Y-111505038D01*
X113922078Y-111347257D01*
X113903642Y-111286481D01*
X113870142Y-111176048D01*
X113852606Y-110998000D01*
X113870142Y-110819952D01*
X113922077Y-110648746D01*
X113922078Y-110648743D01*
X114006413Y-110490962D01*
X114119913Y-110352663D01*
X114258212Y-110239163D01*
X114415993Y-110154828D01*
X114415996Y-110154827D01*
X114587202Y-110102892D01*
X114676158Y-110094131D01*
X114720635Y-110089750D01*
X114895365Y-110089750D01*
X114939842Y-110094131D01*
G37*
G36*
X134106228Y-109925703D02*
G01*
X134261100Y-109989853D01*
X134400481Y-110082985D01*
X134519015Y-110201519D01*
X134612147Y-110340900D01*
X134676297Y-110495772D01*
X134709000Y-110660184D01*
X134709000Y-110827816D01*
X134676297Y-110992228D01*
X134612147Y-111147100D01*
X134519015Y-111286481D01*
X134400481Y-111405015D01*
X134261100Y-111498147D01*
X134106228Y-111562297D01*
X133941816Y-111595000D01*
X133774184Y-111595000D01*
X133609772Y-111562297D01*
X133454900Y-111498147D01*
X133315519Y-111405015D01*
X133196985Y-111286481D01*
X133103853Y-111147100D01*
X133039703Y-110992228D01*
X133007000Y-110827816D01*
X133007000Y-110660184D01*
X133039703Y-110495772D01*
X133103853Y-110340900D01*
X133196985Y-110201519D01*
X133315519Y-110082985D01*
X133454900Y-109989853D01*
X133609772Y-109925703D01*
X133774184Y-109893000D01*
X133941816Y-109893000D01*
X134106228Y-109925703D01*
G37*
G36*
X159506228Y-109925703D02*
G01*
X159661100Y-109989853D01*
X159800481Y-110082985D01*
X159919015Y-110201519D01*
X160012147Y-110340900D01*
X160076297Y-110495772D01*
X160109000Y-110660184D01*
X160109000Y-110827816D01*
X160076297Y-110992228D01*
X160012147Y-111147100D01*
X159919015Y-111286481D01*
X159800481Y-111405015D01*
X159661100Y-111498147D01*
X159506228Y-111562297D01*
X159341816Y-111595000D01*
X159174184Y-111595000D01*
X159009772Y-111562297D01*
X158854900Y-111498147D01*
X158715519Y-111405015D01*
X158596985Y-111286481D01*
X158503853Y-111147100D01*
X158439703Y-110992228D01*
X158407000Y-110827816D01*
X158407000Y-110660184D01*
X158439703Y-110495772D01*
X158503853Y-110340900D01*
X158596985Y-110201519D01*
X158715519Y-110082985D01*
X158854900Y-109989853D01*
X159009772Y-109925703D01*
X159174184Y-109893000D01*
X159341816Y-109893000D01*
X159506228Y-109925703D01*
G37*
G36*
X125724228Y-108147703D02*
G01*
X125879100Y-108211853D01*
X126018481Y-108304985D01*
X126137015Y-108423519D01*
X126230147Y-108562900D01*
X126294297Y-108717772D01*
X126327000Y-108882184D01*
X126327000Y-109049816D01*
X126294297Y-109214228D01*
X126230147Y-109369100D01*
X126137015Y-109508481D01*
X126018481Y-109627015D01*
X125879100Y-109720147D01*
X125724228Y-109784297D01*
X125559816Y-109817000D01*
X125392184Y-109817000D01*
X125227772Y-109784297D01*
X125072900Y-109720147D01*
X124933519Y-109627015D01*
X124814985Y-109508481D01*
X124721853Y-109369100D01*
X124657703Y-109214228D01*
X124625000Y-109049816D01*
X124625000Y-108882184D01*
X124657703Y-108717772D01*
X124721853Y-108562900D01*
X124814985Y-108423519D01*
X124933519Y-108304985D01*
X125072900Y-108211853D01*
X125227772Y-108147703D01*
X125392184Y-108115000D01*
X125559816Y-108115000D01*
X125724228Y-108147703D01*
G37*
G36*
X118104228Y-108147703D02*
G01*
X118259100Y-108211853D01*
X118398481Y-108304985D01*
X118517015Y-108423519D01*
X118610147Y-108562900D01*
X118674297Y-108717772D01*
X118707000Y-108882184D01*
X118707000Y-109049816D01*
X118674297Y-109214228D01*
X118610147Y-109369100D01*
X118517015Y-109508481D01*
X118398481Y-109627015D01*
X118259100Y-109720147D01*
X118104228Y-109784297D01*
X117939816Y-109817000D01*
X117772184Y-109817000D01*
X117607772Y-109784297D01*
X117452900Y-109720147D01*
X117313519Y-109627015D01*
X117194985Y-109508481D01*
X117101853Y-109369100D01*
X117037703Y-109214228D01*
X117005000Y-109049816D01*
X117005000Y-108882184D01*
X117037703Y-108717772D01*
X117101853Y-108562900D01*
X117194985Y-108423519D01*
X117313519Y-108304985D01*
X117452900Y-108211853D01*
X117607772Y-108147703D01*
X117772184Y-108115000D01*
X117939816Y-108115000D01*
X118104228Y-108147703D01*
G37*
G36*
X115759000Y-109620250D02*
G01*
X113857000Y-109620250D01*
X113857000Y-107803750D01*
X115759000Y-107803750D01*
X115759000Y-109620250D01*
G37*
G36*
X173621000Y-109613000D02*
G01*
X171819000Y-109613000D01*
X171819000Y-107811000D01*
X173621000Y-107811000D01*
X173621000Y-109613000D01*
G37*
G36*
X129983000Y-109155000D02*
G01*
X128081000Y-109155000D01*
X128081000Y-107253000D01*
X129983000Y-107253000D01*
X129983000Y-109155000D01*
G37*
G36*
X134106228Y-107385703D02*
G01*
X134261100Y-107449853D01*
X134400481Y-107542985D01*
X134519015Y-107661519D01*
X134612147Y-107800900D01*
X134676297Y-107955772D01*
X134709000Y-108120184D01*
X134709000Y-108287816D01*
X134676297Y-108452228D01*
X134612147Y-108607100D01*
X134519015Y-108746481D01*
X134400481Y-108865015D01*
X134261100Y-108958147D01*
X134106228Y-109022297D01*
X133941816Y-109055000D01*
X133774184Y-109055000D01*
X133609772Y-109022297D01*
X133454900Y-108958147D01*
X133315519Y-108865015D01*
X133196985Y-108746481D01*
X133103853Y-108607100D01*
X133039703Y-108452228D01*
X133007000Y-108287816D01*
X133007000Y-108120184D01*
X133039703Y-107955772D01*
X133103853Y-107800900D01*
X133196985Y-107661519D01*
X133315519Y-107542985D01*
X133454900Y-107449853D01*
X133609772Y-107385703D01*
X133774184Y-107353000D01*
X133941816Y-107353000D01*
X134106228Y-107385703D01*
G37*
G36*
X159506228Y-107385703D02*
G01*
X159661100Y-107449853D01*
X159800481Y-107542985D01*
X159919015Y-107661519D01*
X160012147Y-107800900D01*
X160076297Y-107955772D01*
X160109000Y-108120184D01*
X160109000Y-108287816D01*
X160076297Y-108452228D01*
X160012147Y-108607100D01*
X159919015Y-108746481D01*
X159800481Y-108865015D01*
X159661100Y-108958147D01*
X159506228Y-109022297D01*
X159341816Y-109055000D01*
X159174184Y-109055000D01*
X159009772Y-109022297D01*
X158854900Y-108958147D01*
X158715519Y-108865015D01*
X158596985Y-108746481D01*
X158503853Y-108607100D01*
X158439703Y-108452228D01*
X158407000Y-108287816D01*
X158407000Y-108120184D01*
X158439703Y-107955772D01*
X158503853Y-107800900D01*
X158596985Y-107661519D01*
X158715519Y-107542985D01*
X158854900Y-107449853D01*
X159009772Y-107385703D01*
X159174184Y-107353000D01*
X159341816Y-107353000D01*
X159506228Y-107385703D01*
G37*
G36*
X107469000Y-108485000D02*
G01*
X104367000Y-108485000D01*
X104367000Y-105383000D01*
X107469000Y-105383000D01*
X107469000Y-108485000D01*
G37*
G36*
X172833512Y-105275927D02*
G01*
X172982812Y-105305624D01*
X173146784Y-105373544D01*
X173294354Y-105472147D01*
X173419853Y-105597646D01*
X173518456Y-105745216D01*
X173586376Y-105909188D01*
X173621000Y-106083259D01*
X173621000Y-106260741D01*
X173586376Y-106434812D01*
X173518456Y-106598784D01*
X173419853Y-106746354D01*
X173294354Y-106871853D01*
X173146784Y-106970456D01*
X172982812Y-107038376D01*
X172833512Y-107068073D01*
X172808742Y-107073000D01*
X172631258Y-107073000D01*
X172606488Y-107068073D01*
X172457188Y-107038376D01*
X172293216Y-106970456D01*
X172145646Y-106871853D01*
X172020147Y-106746354D01*
X171921544Y-106598784D01*
X171853624Y-106434812D01*
X171819000Y-106260741D01*
X171819000Y-106083259D01*
X171853624Y-105909188D01*
X171921544Y-105745216D01*
X172020147Y-105597646D01*
X172145646Y-105472147D01*
X172293216Y-105373544D01*
X172457188Y-105305624D01*
X172606488Y-105275927D01*
X172631258Y-105271000D01*
X172808742Y-105271000D01*
X172833512Y-105275927D01*
G37*
G36*
X112911000Y-106815000D02*
G01*
X110609000Y-106815000D01*
X110609000Y-104513000D01*
X112911000Y-104513000D01*
X112911000Y-106815000D01*
G37*
G36*
X129309395Y-104749546D02*
G01*
X129482466Y-104821234D01*
X129482467Y-104821235D01*
X129638227Y-104925310D01*
X129770690Y-105057773D01*
X129813284Y-105121520D01*
X129874766Y-105213534D01*
X129946454Y-105386605D01*
X129983000Y-105570333D01*
X129983000Y-105757667D01*
X129946454Y-105941395D01*
X129874766Y-106114466D01*
X129874765Y-106114467D01*
X129770690Y-106270227D01*
X129638227Y-106402690D01*
X129615092Y-106418148D01*
X129482466Y-106506766D01*
X129309395Y-106578454D01*
X129125667Y-106615000D01*
X128938333Y-106615000D01*
X128754605Y-106578454D01*
X128581534Y-106506766D01*
X128448908Y-106418148D01*
X128425773Y-106402690D01*
X128293310Y-106270227D01*
X128189235Y-106114467D01*
X128189234Y-106114466D01*
X128117546Y-105941395D01*
X128081000Y-105757667D01*
X128081000Y-105570333D01*
X128117546Y-105386605D01*
X128189234Y-105213534D01*
X128250716Y-105121520D01*
X128293310Y-105057773D01*
X128425773Y-104925310D01*
X128581533Y-104821235D01*
X128581534Y-104821234D01*
X128754605Y-104749546D01*
X128938333Y-104713000D01*
X129125667Y-104713000D01*
X129309395Y-104749546D01*
G37*
G36*
X159506228Y-104845703D02*
G01*
X159661100Y-104909853D01*
X159800481Y-105002985D01*
X159919015Y-105121519D01*
X160012147Y-105260900D01*
X160076297Y-105415772D01*
X160109000Y-105580184D01*
X160109000Y-105747816D01*
X160076297Y-105912228D01*
X160012147Y-106067100D01*
X159919015Y-106206481D01*
X159800481Y-106325015D01*
X159661100Y-106418147D01*
X159506228Y-106482297D01*
X159341816Y-106515000D01*
X159174184Y-106515000D01*
X159009772Y-106482297D01*
X158854900Y-106418147D01*
X158715519Y-106325015D01*
X158596985Y-106206481D01*
X158503853Y-106067100D01*
X158439703Y-105912228D01*
X158407000Y-105747816D01*
X158407000Y-105580184D01*
X158439703Y-105415772D01*
X158503853Y-105260900D01*
X158596985Y-105121519D01*
X158715519Y-105002985D01*
X158854900Y-104909853D01*
X159009772Y-104845703D01*
X159174184Y-104813000D01*
X159341816Y-104813000D01*
X159506228Y-104845703D01*
G37*
G36*
X122422228Y-104845703D02*
G01*
X122577100Y-104909853D01*
X122716481Y-105002985D01*
X122835015Y-105121519D01*
X122928147Y-105260900D01*
X122992297Y-105415772D01*
X123025000Y-105580184D01*
X123025000Y-105747816D01*
X122992297Y-105912228D01*
X122928147Y-106067100D01*
X122835015Y-106206481D01*
X122716481Y-106325015D01*
X122577100Y-106418147D01*
X122422228Y-106482297D01*
X122257816Y-106515000D01*
X122090184Y-106515000D01*
X121925772Y-106482297D01*
X121770900Y-106418147D01*
X121631519Y-106325015D01*
X121512985Y-106206481D01*
X121419853Y-106067100D01*
X121355703Y-105912228D01*
X121323000Y-105747816D01*
X121323000Y-105580184D01*
X121355703Y-105415772D01*
X121419853Y-105260900D01*
X121512985Y-105121519D01*
X121631519Y-105002985D01*
X121770900Y-104909853D01*
X121925772Y-104845703D01*
X122090184Y-104813000D01*
X122257816Y-104813000D01*
X122422228Y-104845703D01*
G37*
G36*
X134106228Y-104845703D02*
G01*
X134261100Y-104909853D01*
X134400481Y-105002985D01*
X134519015Y-105121519D01*
X134612147Y-105260900D01*
X134676297Y-105415772D01*
X134709000Y-105580184D01*
X134709000Y-105747816D01*
X134676297Y-105912228D01*
X134612147Y-106067100D01*
X134519015Y-106206481D01*
X134400481Y-106325015D01*
X134261100Y-106418147D01*
X134106228Y-106482297D01*
X133941816Y-106515000D01*
X133774184Y-106515000D01*
X133609772Y-106482297D01*
X133454900Y-106418147D01*
X133315519Y-106325015D01*
X133196985Y-106206481D01*
X133103853Y-106067100D01*
X133039703Y-105912228D01*
X133007000Y-105747816D01*
X133007000Y-105580184D01*
X133039703Y-105415772D01*
X133103853Y-105260900D01*
X133196985Y-105121519D01*
X133315519Y-105002985D01*
X133454900Y-104909853D01*
X133609772Y-104845703D01*
X133774184Y-104813000D01*
X133941816Y-104813000D01*
X134106228Y-104845703D01*
G37*
G36*
X114802228Y-104845703D02*
G01*
X114957100Y-104909853D01*
X115096481Y-105002985D01*
X115215015Y-105121519D01*
X115308147Y-105260900D01*
X115372297Y-105415772D01*
X115405000Y-105580184D01*
X115405000Y-105747816D01*
X115372297Y-105912228D01*
X115308147Y-106067100D01*
X115215015Y-106206481D01*
X115096481Y-106325015D01*
X114957100Y-106418147D01*
X114802228Y-106482297D01*
X114637816Y-106515000D01*
X114470184Y-106515000D01*
X114305772Y-106482297D01*
X114150900Y-106418147D01*
X114011519Y-106325015D01*
X113892985Y-106206481D01*
X113799853Y-106067100D01*
X113735703Y-105912228D01*
X113703000Y-105747816D01*
X113703000Y-105580184D01*
X113735703Y-105415772D01*
X113799853Y-105260900D01*
X113892985Y-105121519D01*
X114011519Y-105002985D01*
X114150900Y-104909853D01*
X114305772Y-104845703D01*
X114470184Y-104813000D01*
X114637816Y-104813000D01*
X114802228Y-104845703D01*
G37*
G36*
X172833512Y-102735927D02*
G01*
X172982812Y-102765624D01*
X173146784Y-102833544D01*
X173294354Y-102932147D01*
X173419853Y-103057646D01*
X173518456Y-103205216D01*
X173586376Y-103369188D01*
X173621000Y-103543259D01*
X173621000Y-103720741D01*
X173586376Y-103894812D01*
X173518456Y-104058784D01*
X173419853Y-104206354D01*
X173294354Y-104331853D01*
X173146784Y-104430456D01*
X172982812Y-104498376D01*
X172833512Y-104528073D01*
X172808742Y-104533000D01*
X172631258Y-104533000D01*
X172606488Y-104528073D01*
X172457188Y-104498376D01*
X172293216Y-104430456D01*
X172145646Y-104331853D01*
X172020147Y-104206354D01*
X171921544Y-104058784D01*
X171853624Y-103894812D01*
X171819000Y-103720741D01*
X171819000Y-103543259D01*
X171853624Y-103369188D01*
X171921544Y-103205216D01*
X172020147Y-103057646D01*
X172145646Y-102932147D01*
X172293216Y-102833544D01*
X172457188Y-102765624D01*
X172606488Y-102735927D01*
X172631258Y-102731000D01*
X172808742Y-102731000D01*
X172833512Y-102735927D01*
G37*
G36*
X134106228Y-102305703D02*
G01*
X134261100Y-102369853D01*
X134400481Y-102462985D01*
X134519015Y-102581519D01*
X134612147Y-102720900D01*
X134676297Y-102875772D01*
X134709000Y-103040184D01*
X134709000Y-103207816D01*
X134676297Y-103372228D01*
X134612147Y-103527100D01*
X134519015Y-103666481D01*
X134400481Y-103785015D01*
X134261100Y-103878147D01*
X134106228Y-103942297D01*
X133941816Y-103975000D01*
X133774184Y-103975000D01*
X133609772Y-103942297D01*
X133454900Y-103878147D01*
X133315519Y-103785015D01*
X133196985Y-103666481D01*
X133103853Y-103527100D01*
X133039703Y-103372228D01*
X133007000Y-103207816D01*
X133007000Y-103040184D01*
X133039703Y-102875772D01*
X133103853Y-102720900D01*
X133196985Y-102581519D01*
X133315519Y-102462985D01*
X133454900Y-102369853D01*
X133609772Y-102305703D01*
X133774184Y-102273000D01*
X133941816Y-102273000D01*
X134106228Y-102305703D01*
G37*
G36*
X159506228Y-102305703D02*
G01*
X159661100Y-102369853D01*
X159800481Y-102462985D01*
X159919015Y-102581519D01*
X160012147Y-102720900D01*
X160076297Y-102875772D01*
X160109000Y-103040184D01*
X160109000Y-103207816D01*
X160076297Y-103372228D01*
X160012147Y-103527100D01*
X159919015Y-103666481D01*
X159800481Y-103785015D01*
X159661100Y-103878147D01*
X159506228Y-103942297D01*
X159341816Y-103975000D01*
X159174184Y-103975000D01*
X159009772Y-103942297D01*
X158854900Y-103878147D01*
X158715519Y-103785015D01*
X158596985Y-103666481D01*
X158503853Y-103527100D01*
X158439703Y-103372228D01*
X158407000Y-103207816D01*
X158407000Y-103040184D01*
X158439703Y-102875772D01*
X158503853Y-102720900D01*
X158596985Y-102581519D01*
X158715519Y-102462985D01*
X158854900Y-102369853D01*
X159009772Y-102305703D01*
X159174184Y-102273000D01*
X159341816Y-102273000D01*
X159506228Y-102305703D01*
G37*
G36*
X111984549Y-101487116D02*
G01*
X112095734Y-101509232D01*
X112305203Y-101595997D01*
X112493720Y-101721960D01*
X112654040Y-101882280D01*
X112734767Y-102003097D01*
X112780004Y-102070799D01*
X112805416Y-102132150D01*
X112866768Y-102280266D01*
X112881464Y-102354147D01*
X112911000Y-102502635D01*
X112911000Y-102729365D01*
X112903787Y-102765625D01*
X112866768Y-102951734D01*
X112830131Y-103040184D01*
X112795812Y-103123038D01*
X112780003Y-103161203D01*
X112654040Y-103349720D01*
X112493720Y-103510040D01*
X112305203Y-103636003D01*
X112095734Y-103722768D01*
X111984549Y-103744884D01*
X111873365Y-103767000D01*
X111646635Y-103767000D01*
X111535451Y-103744884D01*
X111424266Y-103722768D01*
X111214797Y-103636003D01*
X111026280Y-103510040D01*
X110865960Y-103349720D01*
X110739997Y-103161203D01*
X110724189Y-103123038D01*
X110689869Y-103040184D01*
X110653232Y-102951734D01*
X110616213Y-102765625D01*
X110609000Y-102729365D01*
X110609000Y-102502635D01*
X110638536Y-102354147D01*
X110653232Y-102280266D01*
X110714584Y-102132150D01*
X110739996Y-102070799D01*
X110785233Y-102003097D01*
X110865960Y-101882280D01*
X111026280Y-101721960D01*
X111214797Y-101595997D01*
X111424266Y-101509232D01*
X111535451Y-101487116D01*
X111646635Y-101465000D01*
X111873365Y-101465000D01*
X111984549Y-101487116D01*
G37*
G36*
X114939842Y-101712131D02*
G01*
X115028798Y-101720892D01*
X115200004Y-101772827D01*
X115200007Y-101772828D01*
X115357788Y-101857163D01*
X115496087Y-101970663D01*
X115609587Y-102108962D01*
X115693922Y-102266743D01*
X115693923Y-102266746D01*
X115745858Y-102437952D01*
X115763394Y-102616000D01*
X115745858Y-102794048D01*
X115698024Y-102951734D01*
X115693922Y-102965257D01*
X115609587Y-103123038D01*
X115496087Y-103261337D01*
X115357788Y-103374837D01*
X115200007Y-103459172D01*
X115200004Y-103459173D01*
X115028798Y-103511108D01*
X114939842Y-103519869D01*
X114895365Y-103524250D01*
X114720635Y-103524250D01*
X114676158Y-103519869D01*
X114587202Y-103511108D01*
X114415996Y-103459173D01*
X114415993Y-103459172D01*
X114258212Y-103374837D01*
X114119913Y-103261337D01*
X114006413Y-103123038D01*
X113922078Y-102965257D01*
X113917976Y-102951734D01*
X113870142Y-102794048D01*
X113852606Y-102616000D01*
X113870142Y-102437952D01*
X113922077Y-102266746D01*
X113922078Y-102266743D01*
X114006413Y-102108962D01*
X114119913Y-101970663D01*
X114258212Y-101857163D01*
X114415993Y-101772828D01*
X114415996Y-101772827D01*
X114587202Y-101720892D01*
X114676158Y-101712131D01*
X114720635Y-101707750D01*
X114895365Y-101707750D01*
X114939842Y-101712131D01*
G37*
G36*
X106211335Y-99822962D02*
G01*
X106370410Y-99854604D01*
X106652674Y-99971521D01*
X106906705Y-100141259D01*
X107122741Y-100357295D01*
X107292479Y-100611326D01*
X107409396Y-100893590D01*
X107425656Y-100975337D01*
X107469000Y-101193239D01*
X107469000Y-101498761D01*
X107465017Y-101518784D01*
X107409396Y-101798410D01*
X107292479Y-102080674D01*
X107122741Y-102334705D01*
X106906705Y-102550741D01*
X106652674Y-102720479D01*
X106370410Y-102837396D01*
X106220585Y-102867198D01*
X106070761Y-102897000D01*
X105765239Y-102897000D01*
X105615415Y-102867198D01*
X105465590Y-102837396D01*
X105183326Y-102720479D01*
X104929295Y-102550741D01*
X104713259Y-102334705D01*
X104543521Y-102080674D01*
X104426604Y-101798410D01*
X104370983Y-101518784D01*
X104367000Y-101498761D01*
X104367000Y-101193239D01*
X104410344Y-100975337D01*
X104426604Y-100893590D01*
X104543521Y-100611326D01*
X104713259Y-100357295D01*
X104929295Y-100141259D01*
X105183326Y-99971521D01*
X105465590Y-99854604D01*
X105624665Y-99822962D01*
X105765239Y-99795000D01*
X106070761Y-99795000D01*
X106211335Y-99822962D01*
G37*
G36*
X125724228Y-100781703D02*
G01*
X125879100Y-100845853D01*
X126018481Y-100938985D01*
X126137015Y-101057519D01*
X126230147Y-101196900D01*
X126294297Y-101351772D01*
X126327000Y-101516184D01*
X126327000Y-101683816D01*
X126294297Y-101848228D01*
X126230147Y-102003100D01*
X126137015Y-102142481D01*
X126018481Y-102261015D01*
X125879100Y-102354147D01*
X125724228Y-102418297D01*
X125559816Y-102451000D01*
X125392184Y-102451000D01*
X125227772Y-102418297D01*
X125072900Y-102354147D01*
X124933519Y-102261015D01*
X124814985Y-102142481D01*
X124721853Y-102003100D01*
X124657703Y-101848228D01*
X124625000Y-101683816D01*
X124625000Y-101516184D01*
X124657703Y-101351772D01*
X124721853Y-101196900D01*
X124814985Y-101057519D01*
X124933519Y-100938985D01*
X125072900Y-100845853D01*
X125227772Y-100781703D01*
X125392184Y-100749000D01*
X125559816Y-100749000D01*
X125724228Y-100781703D01*
G37*
G36*
X118104228Y-100781703D02*
G01*
X118259100Y-100845853D01*
X118398481Y-100938985D01*
X118517015Y-101057519D01*
X118610147Y-101196900D01*
X118674297Y-101351772D01*
X118707000Y-101516184D01*
X118707000Y-101683816D01*
X118674297Y-101848228D01*
X118610147Y-102003100D01*
X118517015Y-102142481D01*
X118398481Y-102261015D01*
X118259100Y-102354147D01*
X118104228Y-102418297D01*
X117939816Y-102451000D01*
X117772184Y-102451000D01*
X117607772Y-102418297D01*
X117452900Y-102354147D01*
X117313519Y-102261015D01*
X117194985Y-102142481D01*
X117101853Y-102003100D01*
X117037703Y-101848228D01*
X117005000Y-101683816D01*
X117005000Y-101516184D01*
X117037703Y-101351772D01*
X117101853Y-101196900D01*
X117194985Y-101057519D01*
X117313519Y-100938985D01*
X117452900Y-100845853D01*
X117607772Y-100781703D01*
X117772184Y-100749000D01*
X117939816Y-100749000D01*
X118104228Y-100781703D01*
G37*
G36*
X172833512Y-100195927D02*
G01*
X172982812Y-100225624D01*
X173146784Y-100293544D01*
X173294354Y-100392147D01*
X173419853Y-100517646D01*
X173518456Y-100665216D01*
X173586376Y-100829188D01*
X173621000Y-101003259D01*
X173621000Y-101180741D01*
X173586376Y-101354812D01*
X173518456Y-101518784D01*
X173419853Y-101666354D01*
X173294354Y-101791853D01*
X173146784Y-101890456D01*
X172982812Y-101958376D01*
X172833512Y-101988073D01*
X172808742Y-101993000D01*
X172631258Y-101993000D01*
X172606488Y-101988073D01*
X172457188Y-101958376D01*
X172293216Y-101890456D01*
X172145646Y-101791853D01*
X172020147Y-101666354D01*
X171921544Y-101518784D01*
X171853624Y-101354812D01*
X171819000Y-101180741D01*
X171819000Y-101003259D01*
X171853624Y-100829188D01*
X171921544Y-100665216D01*
X172020147Y-100517646D01*
X172145646Y-100392147D01*
X172293216Y-100293544D01*
X172457188Y-100225624D01*
X172606488Y-100195927D01*
X172631258Y-100191000D01*
X172808742Y-100191000D01*
X172833512Y-100195927D01*
G37*
G36*
X159506228Y-99765703D02*
G01*
X159661100Y-99829853D01*
X159800481Y-99922985D01*
X159919015Y-100041519D01*
X160012147Y-100180900D01*
X160076297Y-100335772D01*
X160109000Y-100500184D01*
X160109000Y-100667816D01*
X160076297Y-100832228D01*
X160012147Y-100987100D01*
X159919015Y-101126481D01*
X159800481Y-101245015D01*
X159661100Y-101338147D01*
X159506228Y-101402297D01*
X159341816Y-101435000D01*
X159174184Y-101435000D01*
X159009772Y-101402297D01*
X158854900Y-101338147D01*
X158715519Y-101245015D01*
X158596985Y-101126481D01*
X158503853Y-100987100D01*
X158439703Y-100832228D01*
X158407000Y-100667816D01*
X158407000Y-100500184D01*
X158439703Y-100335772D01*
X158503853Y-100180900D01*
X158596985Y-100041519D01*
X158715519Y-99922985D01*
X158854900Y-99829853D01*
X159009772Y-99765703D01*
X159174184Y-99733000D01*
X159341816Y-99733000D01*
X159506228Y-99765703D01*
G37*
G36*
X134106228Y-99765703D02*
G01*
X134261100Y-99829853D01*
X134400481Y-99922985D01*
X134519015Y-100041519D01*
X134612147Y-100180900D01*
X134676297Y-100335772D01*
X134709000Y-100500184D01*
X134709000Y-100667816D01*
X134676297Y-100832228D01*
X134612147Y-100987100D01*
X134519015Y-101126481D01*
X134400481Y-101245015D01*
X134261100Y-101338147D01*
X134106228Y-101402297D01*
X133941816Y-101435000D01*
X133774184Y-101435000D01*
X133609772Y-101402297D01*
X133454900Y-101338147D01*
X133315519Y-101245015D01*
X133196985Y-101126481D01*
X133103853Y-100987100D01*
X133039703Y-100832228D01*
X133007000Y-100667816D01*
X133007000Y-100500184D01*
X133039703Y-100335772D01*
X133103853Y-100180900D01*
X133196985Y-100041519D01*
X133315519Y-99922985D01*
X133454900Y-99829853D01*
X133609772Y-99765703D01*
X133774184Y-99733000D01*
X133941816Y-99733000D01*
X134106228Y-99765703D01*
G37*
G36*
X114939842Y-99426131D02*
G01*
X115028798Y-99434892D01*
X115200004Y-99486827D01*
X115200007Y-99486828D01*
X115357788Y-99571163D01*
X115496087Y-99684663D01*
X115609587Y-99822962D01*
X115693922Y-99980743D01*
X115693923Y-99980746D01*
X115745858Y-100151952D01*
X115763394Y-100330000D01*
X115745858Y-100508048D01*
X115742946Y-100517646D01*
X115693922Y-100679257D01*
X115609587Y-100837038D01*
X115496087Y-100975337D01*
X115357788Y-101088837D01*
X115200007Y-101173172D01*
X115200004Y-101173173D01*
X115028798Y-101225108D01*
X114939842Y-101233869D01*
X114895365Y-101238250D01*
X114720635Y-101238250D01*
X114676158Y-101233869D01*
X114587202Y-101225108D01*
X114415996Y-101173173D01*
X114415993Y-101173172D01*
X114258212Y-101088837D01*
X114119913Y-100975337D01*
X114006413Y-100837038D01*
X113922078Y-100679257D01*
X113873054Y-100517646D01*
X113870142Y-100508048D01*
X113852606Y-100330000D01*
X113870142Y-100151952D01*
X113922077Y-99980746D01*
X113922078Y-99980743D01*
X114006413Y-99822962D01*
X114119913Y-99684663D01*
X114258212Y-99571163D01*
X114415993Y-99486828D01*
X114415996Y-99486827D01*
X114587202Y-99434892D01*
X114676158Y-99426131D01*
X114720635Y-99421750D01*
X114895365Y-99421750D01*
X114939842Y-99426131D01*
G37*
G36*
X172833512Y-97655927D02*
G01*
X172982812Y-97685624D01*
X173146784Y-97753544D01*
X173294354Y-97852147D01*
X173419853Y-97977646D01*
X173518456Y-98125216D01*
X173586376Y-98289188D01*
X173621000Y-98463259D01*
X173621000Y-98640741D01*
X173586376Y-98814812D01*
X173518456Y-98978784D01*
X173419853Y-99126354D01*
X173294354Y-99251853D01*
X173146784Y-99350456D01*
X172982812Y-99418376D01*
X172833512Y-99448073D01*
X172808742Y-99453000D01*
X172631258Y-99453000D01*
X172606488Y-99448073D01*
X172457188Y-99418376D01*
X172293216Y-99350456D01*
X172145646Y-99251853D01*
X172020147Y-99126354D01*
X171921544Y-98978784D01*
X171853624Y-98814812D01*
X171819000Y-98640741D01*
X171819000Y-98463259D01*
X171853624Y-98289188D01*
X171921544Y-98125216D01*
X172020147Y-97977646D01*
X172145646Y-97852147D01*
X172293216Y-97753544D01*
X172457188Y-97685624D01*
X172606488Y-97655927D01*
X172631258Y-97651000D01*
X172808742Y-97651000D01*
X172833512Y-97655927D01*
G37*
G36*
X125724228Y-97479703D02*
G01*
X125879100Y-97543853D01*
X126018481Y-97636985D01*
X126137015Y-97755519D01*
X126230147Y-97894900D01*
X126294297Y-98049772D01*
X126327000Y-98214184D01*
X126327000Y-98381816D01*
X126294297Y-98546228D01*
X126230147Y-98701100D01*
X126137015Y-98840481D01*
X126018481Y-98959015D01*
X125879100Y-99052147D01*
X125724228Y-99116297D01*
X125559816Y-99149000D01*
X125392184Y-99149000D01*
X125227772Y-99116297D01*
X125072900Y-99052147D01*
X124933519Y-98959015D01*
X124814985Y-98840481D01*
X124721853Y-98701100D01*
X124657703Y-98546228D01*
X124625000Y-98381816D01*
X124625000Y-98214184D01*
X124657703Y-98049772D01*
X124721853Y-97894900D01*
X124814985Y-97755519D01*
X124933519Y-97636985D01*
X125072900Y-97543853D01*
X125227772Y-97479703D01*
X125392184Y-97447000D01*
X125559816Y-97447000D01*
X125724228Y-97479703D01*
G37*
G36*
X118104228Y-97479703D02*
G01*
X118259100Y-97543853D01*
X118398481Y-97636985D01*
X118517015Y-97755519D01*
X118610147Y-97894900D01*
X118674297Y-98049772D01*
X118707000Y-98214184D01*
X118707000Y-98381816D01*
X118674297Y-98546228D01*
X118610147Y-98701100D01*
X118517015Y-98840481D01*
X118398481Y-98959015D01*
X118259100Y-99052147D01*
X118104228Y-99116297D01*
X117939816Y-99149000D01*
X117772184Y-99149000D01*
X117607772Y-99116297D01*
X117452900Y-99052147D01*
X117313519Y-98959015D01*
X117194985Y-98840481D01*
X117101853Y-98701100D01*
X117037703Y-98546228D01*
X117005000Y-98381816D01*
X117005000Y-98214184D01*
X117037703Y-98049772D01*
X117101853Y-97894900D01*
X117194985Y-97755519D01*
X117313519Y-97636985D01*
X117452900Y-97543853D01*
X117607772Y-97479703D01*
X117772184Y-97447000D01*
X117939816Y-97447000D01*
X118104228Y-97479703D01*
G37*
G36*
X115759000Y-98952250D02*
G01*
X113857000Y-98952250D01*
X113857000Y-97135750D01*
X115759000Y-97135750D01*
X115759000Y-98952250D01*
G37*
G36*
X159506228Y-97225703D02*
G01*
X159661100Y-97289853D01*
X159800481Y-97382985D01*
X159919015Y-97501519D01*
X160012147Y-97640900D01*
X160076297Y-97795772D01*
X160109000Y-97960184D01*
X160109000Y-98127816D01*
X160076297Y-98292228D01*
X160012147Y-98447100D01*
X159919015Y-98586481D01*
X159800481Y-98705015D01*
X159661100Y-98798147D01*
X159506228Y-98862297D01*
X159341816Y-98895000D01*
X159174184Y-98895000D01*
X159009772Y-98862297D01*
X158854900Y-98798147D01*
X158715519Y-98705015D01*
X158596985Y-98586481D01*
X158503853Y-98447100D01*
X158439703Y-98292228D01*
X158407000Y-98127816D01*
X158407000Y-97960184D01*
X158439703Y-97795772D01*
X158503853Y-97640900D01*
X158596985Y-97501519D01*
X158715519Y-97382985D01*
X158854900Y-97289853D01*
X159009772Y-97225703D01*
X159174184Y-97193000D01*
X159341816Y-97193000D01*
X159506228Y-97225703D01*
G37*
G36*
X134106228Y-97225703D02*
G01*
X134261100Y-97289853D01*
X134400481Y-97382985D01*
X134519015Y-97501519D01*
X134612147Y-97640900D01*
X134676297Y-97795772D01*
X134709000Y-97960184D01*
X134709000Y-98127816D01*
X134676297Y-98292228D01*
X134612147Y-98447100D01*
X134519015Y-98586481D01*
X134400481Y-98705015D01*
X134261100Y-98798147D01*
X134106228Y-98862297D01*
X133941816Y-98895000D01*
X133774184Y-98895000D01*
X133609772Y-98862297D01*
X133454900Y-98798147D01*
X133315519Y-98705015D01*
X133196985Y-98586481D01*
X133103853Y-98447100D01*
X133039703Y-98292228D01*
X133007000Y-98127816D01*
X133007000Y-97960184D01*
X133039703Y-97795772D01*
X133103853Y-97640900D01*
X133196985Y-97501519D01*
X133315519Y-97382985D01*
X133454900Y-97289853D01*
X133609772Y-97225703D01*
X133774184Y-97193000D01*
X133941816Y-97193000D01*
X134106228Y-97225703D01*
G37*
G36*
X129983000Y-98487000D02*
G01*
X128081000Y-98487000D01*
X128081000Y-96585000D01*
X129983000Y-96585000D01*
X129983000Y-98487000D01*
G37*
G36*
X107469000Y-97817000D02*
G01*
X104367000Y-97817000D01*
X104367000Y-94715000D01*
X107469000Y-94715000D01*
X107469000Y-97817000D01*
G37*
G36*
X172833512Y-95115927D02*
G01*
X172982812Y-95145624D01*
X173146784Y-95213544D01*
X173294354Y-95312147D01*
X173419853Y-95437646D01*
X173518456Y-95585216D01*
X173586376Y-95749188D01*
X173621000Y-95923259D01*
X173621000Y-96100741D01*
X173586376Y-96274812D01*
X173518456Y-96438784D01*
X173419853Y-96586354D01*
X173294354Y-96711853D01*
X173146784Y-96810456D01*
X172982812Y-96878376D01*
X172833512Y-96908073D01*
X172808742Y-96913000D01*
X172631258Y-96913000D01*
X172606488Y-96908073D01*
X172457188Y-96878376D01*
X172293216Y-96810456D01*
X172145646Y-96711853D01*
X172020147Y-96586354D01*
X171921544Y-96438784D01*
X171853624Y-96274812D01*
X171819000Y-96100741D01*
X171819000Y-95923259D01*
X171853624Y-95749188D01*
X171921544Y-95585216D01*
X172020147Y-95437646D01*
X172145646Y-95312147D01*
X172293216Y-95213544D01*
X172457188Y-95145624D01*
X172606488Y-95115927D01*
X172631258Y-95111000D01*
X172808742Y-95111000D01*
X172833512Y-95115927D01*
G37*
G36*
X134106228Y-94685703D02*
G01*
X134261100Y-94749853D01*
X134400481Y-94842985D01*
X134519015Y-94961519D01*
X134612147Y-95100900D01*
X134676297Y-95255772D01*
X134709000Y-95420184D01*
X134709000Y-95587816D01*
X134676297Y-95752228D01*
X134612147Y-95907100D01*
X134519015Y-96046481D01*
X134400481Y-96165015D01*
X134261100Y-96258147D01*
X134106228Y-96322297D01*
X133941816Y-96355000D01*
X133774184Y-96355000D01*
X133609772Y-96322297D01*
X133454900Y-96258147D01*
X133315519Y-96165015D01*
X133196985Y-96046481D01*
X133103853Y-95907100D01*
X133039703Y-95752228D01*
X133007000Y-95587816D01*
X133007000Y-95420184D01*
X133039703Y-95255772D01*
X133103853Y-95100900D01*
X133196985Y-94961519D01*
X133315519Y-94842985D01*
X133454900Y-94749853D01*
X133609772Y-94685703D01*
X133774184Y-94653000D01*
X133941816Y-94653000D01*
X134106228Y-94685703D01*
G37*
G36*
X159506228Y-94685703D02*
G01*
X159661100Y-94749853D01*
X159800481Y-94842985D01*
X159919015Y-94961519D01*
X160012147Y-95100900D01*
X160076297Y-95255772D01*
X160109000Y-95420184D01*
X160109000Y-95587816D01*
X160076297Y-95752228D01*
X160012147Y-95907100D01*
X159919015Y-96046481D01*
X159800481Y-96165015D01*
X159661100Y-96258147D01*
X159506228Y-96322297D01*
X159341816Y-96355000D01*
X159174184Y-96355000D01*
X159009772Y-96322297D01*
X158854900Y-96258147D01*
X158715519Y-96165015D01*
X158596985Y-96046481D01*
X158503853Y-95907100D01*
X158439703Y-95752228D01*
X158407000Y-95587816D01*
X158407000Y-95420184D01*
X158439703Y-95255772D01*
X158503853Y-95100900D01*
X158596985Y-94961519D01*
X158715519Y-94842985D01*
X158854900Y-94749853D01*
X159009772Y-94685703D01*
X159174184Y-94653000D01*
X159341816Y-94653000D01*
X159506228Y-94685703D01*
G37*
G36*
X112911000Y-96147000D02*
G01*
X110609000Y-96147000D01*
X110609000Y-93845000D01*
X112911000Y-93845000D01*
X112911000Y-96147000D01*
G37*
G36*
X129309395Y-94081546D02*
G01*
X129482466Y-94153234D01*
X129510331Y-94171853D01*
X129638227Y-94257310D01*
X129770690Y-94389773D01*
X129813284Y-94453520D01*
X129874766Y-94545534D01*
X129946454Y-94718605D01*
X129983000Y-94902333D01*
X129983000Y-95089667D01*
X129946454Y-95273395D01*
X129874766Y-95446466D01*
X129874765Y-95446467D01*
X129770690Y-95602227D01*
X129638227Y-95734690D01*
X129615092Y-95750148D01*
X129482466Y-95838766D01*
X129309395Y-95910454D01*
X129125667Y-95947000D01*
X128938333Y-95947000D01*
X128754605Y-95910454D01*
X128581534Y-95838766D01*
X128448908Y-95750148D01*
X128425773Y-95734690D01*
X128293310Y-95602227D01*
X128189235Y-95446467D01*
X128189234Y-95446466D01*
X128117546Y-95273395D01*
X128081000Y-95089667D01*
X128081000Y-94902333D01*
X128117546Y-94718605D01*
X128189234Y-94545534D01*
X128250716Y-94453520D01*
X128293310Y-94389773D01*
X128425773Y-94257310D01*
X128553669Y-94171853D01*
X128581534Y-94153234D01*
X128754605Y-94081546D01*
X128938333Y-94045000D01*
X129125667Y-94045000D01*
X129309395Y-94081546D01*
G37*
G36*
X114802228Y-94177703D02*
G01*
X114957100Y-94241853D01*
X115096481Y-94334985D01*
X115215015Y-94453519D01*
X115308147Y-94592900D01*
X115372297Y-94747772D01*
X115405000Y-94912184D01*
X115405000Y-95079816D01*
X115372297Y-95244228D01*
X115308147Y-95399100D01*
X115215015Y-95538481D01*
X115096481Y-95657015D01*
X114957100Y-95750147D01*
X114802228Y-95814297D01*
X114637816Y-95847000D01*
X114470184Y-95847000D01*
X114305772Y-95814297D01*
X114150900Y-95750147D01*
X114011519Y-95657015D01*
X113892985Y-95538481D01*
X113799853Y-95399100D01*
X113735703Y-95244228D01*
X113703000Y-95079816D01*
X113703000Y-94912184D01*
X113735703Y-94747772D01*
X113799853Y-94592900D01*
X113892985Y-94453519D01*
X114011519Y-94334985D01*
X114150900Y-94241853D01*
X114305772Y-94177703D01*
X114470184Y-94145000D01*
X114637816Y-94145000D01*
X114802228Y-94177703D01*
G37*
G36*
X122422228Y-94177703D02*
G01*
X122577100Y-94241853D01*
X122716481Y-94334985D01*
X122835015Y-94453519D01*
X122928147Y-94592900D01*
X122992297Y-94747772D01*
X123025000Y-94912184D01*
X123025000Y-95079816D01*
X122992297Y-95244228D01*
X122928147Y-95399100D01*
X122835015Y-95538481D01*
X122716481Y-95657015D01*
X122577100Y-95750147D01*
X122422228Y-95814297D01*
X122257816Y-95847000D01*
X122090184Y-95847000D01*
X121925772Y-95814297D01*
X121770900Y-95750147D01*
X121631519Y-95657015D01*
X121512985Y-95538481D01*
X121419853Y-95399100D01*
X121355703Y-95244228D01*
X121323000Y-95079816D01*
X121323000Y-94912184D01*
X121355703Y-94747772D01*
X121419853Y-94592900D01*
X121512985Y-94453519D01*
X121631519Y-94334985D01*
X121770900Y-94241853D01*
X121925772Y-94177703D01*
X122090184Y-94145000D01*
X122257816Y-94145000D01*
X122422228Y-94177703D01*
G37*
G36*
X172833512Y-92575927D02*
G01*
X172982812Y-92605624D01*
X173146784Y-92673544D01*
X173294354Y-92772147D01*
X173419853Y-92897646D01*
X173518456Y-93045216D01*
X173586376Y-93209188D01*
X173621000Y-93383259D01*
X173621000Y-93560741D01*
X173586376Y-93734812D01*
X173518456Y-93898784D01*
X173419853Y-94046354D01*
X173294354Y-94171853D01*
X173146784Y-94270456D01*
X172982812Y-94338376D01*
X172833512Y-94368073D01*
X172808742Y-94373000D01*
X172631258Y-94373000D01*
X172606488Y-94368073D01*
X172457188Y-94338376D01*
X172293216Y-94270456D01*
X172145646Y-94171853D01*
X172020147Y-94046354D01*
X171921544Y-93898784D01*
X171853624Y-93734812D01*
X171819000Y-93560741D01*
X171819000Y-93383259D01*
X171853624Y-93209188D01*
X171921544Y-93045216D01*
X172020147Y-92897646D01*
X172145646Y-92772147D01*
X172293216Y-92673544D01*
X172457188Y-92605624D01*
X172606488Y-92575927D01*
X172631258Y-92571000D01*
X172808742Y-92571000D01*
X172833512Y-92575927D01*
G37*
G36*
X134106228Y-92145703D02*
G01*
X134261100Y-92209853D01*
X134400481Y-92302985D01*
X134519015Y-92421519D01*
X134612147Y-92560900D01*
X134676297Y-92715772D01*
X134709000Y-92880184D01*
X134709000Y-93047816D01*
X134676297Y-93212228D01*
X134612147Y-93367100D01*
X134519015Y-93506481D01*
X134400481Y-93625015D01*
X134261100Y-93718147D01*
X134106228Y-93782297D01*
X133941816Y-93815000D01*
X133774184Y-93815000D01*
X133609772Y-93782297D01*
X133454900Y-93718147D01*
X133315519Y-93625015D01*
X133196985Y-93506481D01*
X133103853Y-93367100D01*
X133039703Y-93212228D01*
X133007000Y-93047816D01*
X133007000Y-92880184D01*
X133039703Y-92715772D01*
X133103853Y-92560900D01*
X133196985Y-92421519D01*
X133315519Y-92302985D01*
X133454900Y-92209853D01*
X133609772Y-92145703D01*
X133774184Y-92113000D01*
X133941816Y-92113000D01*
X134106228Y-92145703D01*
G37*
G36*
X159506228Y-92145703D02*
G01*
X159661100Y-92209853D01*
X159800481Y-92302985D01*
X159919015Y-92421519D01*
X160012147Y-92560900D01*
X160076297Y-92715772D01*
X160109000Y-92880184D01*
X160109000Y-93047816D01*
X160076297Y-93212228D01*
X160012147Y-93367100D01*
X159919015Y-93506481D01*
X159800481Y-93625015D01*
X159661100Y-93718147D01*
X159506228Y-93782297D01*
X159341816Y-93815000D01*
X159174184Y-93815000D01*
X159009772Y-93782297D01*
X158854900Y-93718147D01*
X158715519Y-93625015D01*
X158596985Y-93506481D01*
X158503853Y-93367100D01*
X158439703Y-93212228D01*
X158407000Y-93047816D01*
X158407000Y-92880184D01*
X158439703Y-92715772D01*
X158503853Y-92560900D01*
X158596985Y-92421519D01*
X158715519Y-92302985D01*
X158854900Y-92209853D01*
X159009772Y-92145703D01*
X159174184Y-92113000D01*
X159341816Y-92113000D01*
X159506228Y-92145703D01*
G37*
G36*
X111984549Y-90819116D02*
G01*
X112095734Y-90841232D01*
X112305203Y-90927997D01*
X112493720Y-91053960D01*
X112654040Y-91214280D01*
X112734767Y-91335097D01*
X112780004Y-91402799D01*
X112805416Y-91464150D01*
X112866768Y-91612266D01*
X112881464Y-91686147D01*
X112903788Y-91798376D01*
X112911000Y-91834636D01*
X112911000Y-92061364D01*
X112866768Y-92283734D01*
X112809695Y-92421520D01*
X112795812Y-92455038D01*
X112780003Y-92493203D01*
X112654040Y-92681720D01*
X112493720Y-92842040D01*
X112305203Y-92968003D01*
X112095734Y-93054768D01*
X111984549Y-93076884D01*
X111873365Y-93099000D01*
X111646635Y-93099000D01*
X111535451Y-93076884D01*
X111424266Y-93054768D01*
X111214797Y-92968003D01*
X111026280Y-92842040D01*
X110865960Y-92681720D01*
X110739997Y-92493203D01*
X110724189Y-92455038D01*
X110710305Y-92421520D01*
X110653232Y-92283734D01*
X110609000Y-92061364D01*
X110609000Y-91834636D01*
X110616213Y-91798376D01*
X110638536Y-91686147D01*
X110653232Y-91612266D01*
X110714584Y-91464150D01*
X110739996Y-91402799D01*
X110785233Y-91335097D01*
X110865960Y-91214280D01*
X111026280Y-91053960D01*
X111214797Y-90927997D01*
X111424266Y-90841232D01*
X111535451Y-90819116D01*
X111646635Y-90797000D01*
X111873365Y-90797000D01*
X111984549Y-90819116D01*
G37*
G36*
X114939842Y-91044131D02*
G01*
X115028798Y-91052892D01*
X115200004Y-91104827D01*
X115200007Y-91104828D01*
X115357788Y-91189163D01*
X115496087Y-91302663D01*
X115609587Y-91440962D01*
X115693922Y-91598743D01*
X115693923Y-91598746D01*
X115745858Y-91769952D01*
X115763394Y-91948000D01*
X115745858Y-92126048D01*
X115698024Y-92283734D01*
X115693922Y-92297257D01*
X115609587Y-92455038D01*
X115496087Y-92593337D01*
X115357788Y-92706837D01*
X115200007Y-92791172D01*
X115200004Y-92791173D01*
X115028798Y-92843108D01*
X114939842Y-92851869D01*
X114895365Y-92856250D01*
X114720635Y-92856250D01*
X114676158Y-92851869D01*
X114587202Y-92843108D01*
X114415996Y-92791173D01*
X114415993Y-92791172D01*
X114258212Y-92706837D01*
X114119913Y-92593337D01*
X114006413Y-92455038D01*
X113922078Y-92297257D01*
X113917976Y-92283734D01*
X113870142Y-92126048D01*
X113852606Y-91948000D01*
X113870142Y-91769952D01*
X113922077Y-91598746D01*
X113922078Y-91598743D01*
X114006413Y-91440962D01*
X114119913Y-91302663D01*
X114258212Y-91189163D01*
X114415993Y-91104828D01*
X114415996Y-91104827D01*
X114587202Y-91052892D01*
X114676158Y-91044131D01*
X114720635Y-91039750D01*
X114895365Y-91039750D01*
X114939842Y-91044131D01*
G37*
G36*
X106211335Y-89154962D02*
G01*
X106370410Y-89186604D01*
X106652674Y-89303521D01*
X106906705Y-89473259D01*
X107122741Y-89689295D01*
X107292479Y-89943326D01*
X107409396Y-90225590D01*
X107425656Y-90307337D01*
X107465018Y-90505218D01*
X107469000Y-90525240D01*
X107469000Y-90830760D01*
X107409396Y-91130410D01*
X107292479Y-91412674D01*
X107122741Y-91666705D01*
X106906705Y-91882741D01*
X106652674Y-92052479D01*
X106370410Y-92169396D01*
X106220585Y-92199198D01*
X106070761Y-92229000D01*
X105765239Y-92229000D01*
X105615415Y-92199198D01*
X105465590Y-92169396D01*
X105183326Y-92052479D01*
X104929295Y-91882741D01*
X104713259Y-91666705D01*
X104543521Y-91412674D01*
X104426604Y-91130410D01*
X104367000Y-90830760D01*
X104367000Y-90525240D01*
X104370983Y-90505218D01*
X104410344Y-90307337D01*
X104426604Y-90225590D01*
X104543521Y-89943326D01*
X104713259Y-89689295D01*
X104929295Y-89473259D01*
X105183326Y-89303521D01*
X105465590Y-89186604D01*
X105624665Y-89154962D01*
X105765239Y-89127000D01*
X106070761Y-89127000D01*
X106211335Y-89154962D01*
G37*
G36*
X172833512Y-90035927D02*
G01*
X172982812Y-90065624D01*
X173146784Y-90133544D01*
X173294354Y-90232147D01*
X173419853Y-90357646D01*
X173518456Y-90505216D01*
X173586376Y-90669188D01*
X173621000Y-90843259D01*
X173621000Y-91020741D01*
X173586376Y-91194812D01*
X173518456Y-91358784D01*
X173419853Y-91506354D01*
X173294354Y-91631853D01*
X173146784Y-91730456D01*
X172982812Y-91798376D01*
X172833512Y-91828073D01*
X172808742Y-91833000D01*
X172631258Y-91833000D01*
X172606488Y-91828073D01*
X172457188Y-91798376D01*
X172293216Y-91730456D01*
X172145646Y-91631853D01*
X172020147Y-91506354D01*
X171921544Y-91358784D01*
X171853624Y-91194812D01*
X171819000Y-91020741D01*
X171819000Y-90843259D01*
X171853624Y-90669188D01*
X171921544Y-90505216D01*
X172020147Y-90357646D01*
X172145646Y-90232147D01*
X172293216Y-90133544D01*
X172457188Y-90065624D01*
X172606488Y-90035927D01*
X172631258Y-90031000D01*
X172808742Y-90031000D01*
X172833512Y-90035927D01*
G37*
G36*
X118104228Y-90113703D02*
G01*
X118259100Y-90177853D01*
X118398481Y-90270985D01*
X118517015Y-90389519D01*
X118610147Y-90528900D01*
X118674297Y-90683772D01*
X118707000Y-90848184D01*
X118707000Y-91015816D01*
X118674297Y-91180228D01*
X118610147Y-91335100D01*
X118517015Y-91474481D01*
X118398481Y-91593015D01*
X118259100Y-91686147D01*
X118104228Y-91750297D01*
X117939816Y-91783000D01*
X117772184Y-91783000D01*
X117607772Y-91750297D01*
X117452900Y-91686147D01*
X117313519Y-91593015D01*
X117194985Y-91474481D01*
X117101853Y-91335100D01*
X117037703Y-91180228D01*
X117005000Y-91015816D01*
X117005000Y-90848184D01*
X117037703Y-90683772D01*
X117101853Y-90528900D01*
X117194985Y-90389519D01*
X117313519Y-90270985D01*
X117452900Y-90177853D01*
X117607772Y-90113703D01*
X117772184Y-90081000D01*
X117939816Y-90081000D01*
X118104228Y-90113703D01*
G37*
G36*
X125724228Y-90113703D02*
G01*
X125879100Y-90177853D01*
X126018481Y-90270985D01*
X126137015Y-90389519D01*
X126230147Y-90528900D01*
X126294297Y-90683772D01*
X126327000Y-90848184D01*
X126327000Y-91015816D01*
X126294297Y-91180228D01*
X126230147Y-91335100D01*
X126137015Y-91474481D01*
X126018481Y-91593015D01*
X125879100Y-91686147D01*
X125724228Y-91750297D01*
X125559816Y-91783000D01*
X125392184Y-91783000D01*
X125227772Y-91750297D01*
X125072900Y-91686147D01*
X124933519Y-91593015D01*
X124814985Y-91474481D01*
X124721853Y-91335100D01*
X124657703Y-91180228D01*
X124625000Y-91015816D01*
X124625000Y-90848184D01*
X124657703Y-90683772D01*
X124721853Y-90528900D01*
X124814985Y-90389519D01*
X124933519Y-90270985D01*
X125072900Y-90177853D01*
X125227772Y-90113703D01*
X125392184Y-90081000D01*
X125559816Y-90081000D01*
X125724228Y-90113703D01*
G37*
G36*
X134106228Y-89605703D02*
G01*
X134261100Y-89669853D01*
X134400481Y-89762985D01*
X134519015Y-89881519D01*
X134612147Y-90020900D01*
X134676297Y-90175772D01*
X134709000Y-90340184D01*
X134709000Y-90507816D01*
X134676297Y-90672228D01*
X134612147Y-90827100D01*
X134519015Y-90966481D01*
X134400481Y-91085015D01*
X134261100Y-91178147D01*
X134106228Y-91242297D01*
X133941816Y-91275000D01*
X133774184Y-91275000D01*
X133609772Y-91242297D01*
X133454900Y-91178147D01*
X133315519Y-91085015D01*
X133196985Y-90966481D01*
X133103853Y-90827100D01*
X133039703Y-90672228D01*
X133007000Y-90507816D01*
X133007000Y-90340184D01*
X133039703Y-90175772D01*
X133103853Y-90020900D01*
X133196985Y-89881519D01*
X133315519Y-89762985D01*
X133454900Y-89669853D01*
X133609772Y-89605703D01*
X133774184Y-89573000D01*
X133941816Y-89573000D01*
X134106228Y-89605703D01*
G37*
G36*
X159506228Y-89605703D02*
G01*
X159661100Y-89669853D01*
X159800481Y-89762985D01*
X159919015Y-89881519D01*
X160012147Y-90020900D01*
X160076297Y-90175772D01*
X160109000Y-90340184D01*
X160109000Y-90507816D01*
X160076297Y-90672228D01*
X160012147Y-90827100D01*
X159919015Y-90966481D01*
X159800481Y-91085015D01*
X159661100Y-91178147D01*
X159506228Y-91242297D01*
X159341816Y-91275000D01*
X159174184Y-91275000D01*
X159009772Y-91242297D01*
X158854900Y-91178147D01*
X158715519Y-91085015D01*
X158596985Y-90966481D01*
X158503853Y-90827100D01*
X158439703Y-90672228D01*
X158407000Y-90507816D01*
X158407000Y-90340184D01*
X158439703Y-90175772D01*
X158503853Y-90020900D01*
X158596985Y-89881519D01*
X158715519Y-89762985D01*
X158854900Y-89669853D01*
X159009772Y-89605703D01*
X159174184Y-89573000D01*
X159341816Y-89573000D01*
X159506228Y-89605703D01*
G37*
G36*
X114939842Y-88758131D02*
G01*
X115028798Y-88766892D01*
X115200004Y-88818827D01*
X115200007Y-88818828D01*
X115357788Y-88903163D01*
X115496087Y-89016663D01*
X115609587Y-89154962D01*
X115693922Y-89312743D01*
X115693923Y-89312746D01*
X115745858Y-89483952D01*
X115763394Y-89662000D01*
X115745858Y-89840048D01*
X115714529Y-89943326D01*
X115693922Y-90011257D01*
X115609587Y-90169038D01*
X115496087Y-90307337D01*
X115357788Y-90420837D01*
X115200007Y-90505172D01*
X115200004Y-90505173D01*
X115028798Y-90557108D01*
X114939842Y-90565869D01*
X114895365Y-90570250D01*
X114720635Y-90570250D01*
X114676158Y-90565869D01*
X114587202Y-90557108D01*
X114415996Y-90505173D01*
X114415993Y-90505172D01*
X114258212Y-90420837D01*
X114119913Y-90307337D01*
X114006413Y-90169038D01*
X113922078Y-90011257D01*
X113901471Y-89943326D01*
X113870142Y-89840048D01*
X113852606Y-89662000D01*
X113870142Y-89483952D01*
X113922077Y-89312746D01*
X113922078Y-89312743D01*
X114006413Y-89154962D01*
X114119913Y-89016663D01*
X114258212Y-88903163D01*
X114415993Y-88818828D01*
X114415996Y-88818827D01*
X114587202Y-88766892D01*
X114676158Y-88758131D01*
X114720635Y-88753750D01*
X114895365Y-88753750D01*
X114939842Y-88758131D01*
G37*
G36*
X159506228Y-87065703D02*
G01*
X159661100Y-87129853D01*
X159800481Y-87222985D01*
X159919015Y-87341519D01*
X160012147Y-87480900D01*
X160076297Y-87635772D01*
X160109000Y-87800184D01*
X160109000Y-87967816D01*
X160076297Y-88132228D01*
X160012147Y-88287100D01*
X159919015Y-88426481D01*
X159800481Y-88545015D01*
X159661100Y-88638147D01*
X159506228Y-88702297D01*
X159341816Y-88735000D01*
X159174184Y-88735000D01*
X159009772Y-88702297D01*
X158854900Y-88638147D01*
X158715519Y-88545015D01*
X158596985Y-88426481D01*
X158503853Y-88287100D01*
X158439703Y-88132228D01*
X158407000Y-87967816D01*
X158407000Y-87800184D01*
X158439703Y-87635772D01*
X158503853Y-87480900D01*
X158596985Y-87341519D01*
X158715519Y-87222985D01*
X158854900Y-87129853D01*
X159009772Y-87065703D01*
X159174184Y-87033000D01*
X159341816Y-87033000D01*
X159506228Y-87065703D01*
G37*
G36*
X134106228Y-87065703D02*
G01*
X134261100Y-87129853D01*
X134400481Y-87222985D01*
X134519015Y-87341519D01*
X134612147Y-87480900D01*
X134676297Y-87635772D01*
X134709000Y-87800184D01*
X134709000Y-87967816D01*
X134676297Y-88132228D01*
X134612147Y-88287100D01*
X134519015Y-88426481D01*
X134400481Y-88545015D01*
X134261100Y-88638147D01*
X134106228Y-88702297D01*
X133941816Y-88735000D01*
X133774184Y-88735000D01*
X133609772Y-88702297D01*
X133454900Y-88638147D01*
X133315519Y-88545015D01*
X133196985Y-88426481D01*
X133103853Y-88287100D01*
X133039703Y-88132228D01*
X133007000Y-87967816D01*
X133007000Y-87800184D01*
X133039703Y-87635772D01*
X133103853Y-87480900D01*
X133196985Y-87341519D01*
X133315519Y-87222985D01*
X133454900Y-87129853D01*
X133609772Y-87065703D01*
X133774184Y-87033000D01*
X133941816Y-87033000D01*
X134106228Y-87065703D01*
G37*
G36*
X118104228Y-86811703D02*
G01*
X118259100Y-86875853D01*
X118398481Y-86968985D01*
X118517015Y-87087519D01*
X118610147Y-87226900D01*
X118674297Y-87381772D01*
X118707000Y-87546184D01*
X118707000Y-87713816D01*
X118674297Y-87878228D01*
X118610147Y-88033100D01*
X118517015Y-88172481D01*
X118398481Y-88291015D01*
X118259100Y-88384147D01*
X118104228Y-88448297D01*
X117939816Y-88481000D01*
X117772184Y-88481000D01*
X117607772Y-88448297D01*
X117452900Y-88384147D01*
X117313519Y-88291015D01*
X117194985Y-88172481D01*
X117101853Y-88033100D01*
X117037703Y-87878228D01*
X117005000Y-87713816D01*
X117005000Y-87546184D01*
X117037703Y-87381772D01*
X117101853Y-87226900D01*
X117194985Y-87087519D01*
X117313519Y-86968985D01*
X117452900Y-86875853D01*
X117607772Y-86811703D01*
X117772184Y-86779000D01*
X117939816Y-86779000D01*
X118104228Y-86811703D01*
G37*
G36*
X125724228Y-86811703D02*
G01*
X125879100Y-86875853D01*
X126018481Y-86968985D01*
X126137015Y-87087519D01*
X126230147Y-87226900D01*
X126294297Y-87381772D01*
X126327000Y-87546184D01*
X126327000Y-87713816D01*
X126294297Y-87878228D01*
X126230147Y-88033100D01*
X126137015Y-88172481D01*
X126018481Y-88291015D01*
X125879100Y-88384147D01*
X125724228Y-88448297D01*
X125559816Y-88481000D01*
X125392184Y-88481000D01*
X125227772Y-88448297D01*
X125072900Y-88384147D01*
X124933519Y-88291015D01*
X124814985Y-88172481D01*
X124721853Y-88033100D01*
X124657703Y-87878228D01*
X124625000Y-87713816D01*
X124625000Y-87546184D01*
X124657703Y-87381772D01*
X124721853Y-87226900D01*
X124814985Y-87087519D01*
X124933519Y-86968985D01*
X125072900Y-86875853D01*
X125227772Y-86811703D01*
X125392184Y-86779000D01*
X125559816Y-86779000D01*
X125724228Y-86811703D01*
G37*
G36*
X115759000Y-88284250D02*
G01*
X113857000Y-88284250D01*
X113857000Y-86467750D01*
X115759000Y-86467750D01*
X115759000Y-88284250D01*
G37*
G36*
X129983000Y-87819000D02*
G01*
X128081000Y-87819000D01*
X128081000Y-85917000D01*
X129983000Y-85917000D01*
X129983000Y-87819000D01*
G37*
G36*
X107469000Y-87149000D02*
G01*
X104367000Y-87149000D01*
X104367000Y-84047000D01*
X107469000Y-84047000D01*
X107469000Y-87149000D01*
G37*
G36*
X159506228Y-84525703D02*
G01*
X159661100Y-84589853D01*
X159800481Y-84682985D01*
X159919015Y-84801519D01*
X160012147Y-84940900D01*
X160076297Y-85095772D01*
X160109000Y-85260184D01*
X160109000Y-85427816D01*
X160076297Y-85592228D01*
X160012147Y-85747100D01*
X159919015Y-85886481D01*
X159800481Y-86005015D01*
X159661100Y-86098147D01*
X159506228Y-86162297D01*
X159341816Y-86195000D01*
X159174184Y-86195000D01*
X159009772Y-86162297D01*
X158854900Y-86098147D01*
X158715519Y-86005015D01*
X158596985Y-85886481D01*
X158503853Y-85747100D01*
X158439703Y-85592228D01*
X158407000Y-85427816D01*
X158407000Y-85260184D01*
X158439703Y-85095772D01*
X158503853Y-84940900D01*
X158596985Y-84801519D01*
X158715519Y-84682985D01*
X158854900Y-84589853D01*
X159009772Y-84525703D01*
X159174184Y-84493000D01*
X159341816Y-84493000D01*
X159506228Y-84525703D01*
G37*
G36*
X134106228Y-84525703D02*
G01*
X134261100Y-84589853D01*
X134400481Y-84682985D01*
X134519015Y-84801519D01*
X134612147Y-84940900D01*
X134676297Y-85095772D01*
X134709000Y-85260184D01*
X134709000Y-85427816D01*
X134676297Y-85592228D01*
X134612147Y-85747100D01*
X134519015Y-85886481D01*
X134400481Y-86005015D01*
X134261100Y-86098147D01*
X134106228Y-86162297D01*
X133941816Y-86195000D01*
X133774184Y-86195000D01*
X133609772Y-86162297D01*
X133454900Y-86098147D01*
X133315519Y-86005015D01*
X133196985Y-85886481D01*
X133103853Y-85747100D01*
X133039703Y-85592228D01*
X133007000Y-85427816D01*
X133007000Y-85260184D01*
X133039703Y-85095772D01*
X133103853Y-84940900D01*
X133196985Y-84801519D01*
X133315519Y-84682985D01*
X133454900Y-84589853D01*
X133609772Y-84525703D01*
X133774184Y-84493000D01*
X133941816Y-84493000D01*
X134106228Y-84525703D01*
G37*
G36*
X112911000Y-85479000D02*
G01*
X110609000Y-85479000D01*
X110609000Y-83177000D01*
X112911000Y-83177000D01*
X112911000Y-85479000D01*
G37*
G36*
X129309395Y-83413546D02*
G01*
X129482466Y-83485234D01*
X129482467Y-83485235D01*
X129638227Y-83589310D01*
X129770690Y-83721773D01*
X129813284Y-83785520D01*
X129874766Y-83877534D01*
X129946454Y-84050605D01*
X129983000Y-84234333D01*
X129983000Y-84421667D01*
X129946454Y-84605395D01*
X129874766Y-84778466D01*
X129874765Y-84778467D01*
X129770690Y-84934227D01*
X129638227Y-85066690D01*
X129559818Y-85119081D01*
X129482466Y-85170766D01*
X129309395Y-85242454D01*
X129125667Y-85279000D01*
X128938333Y-85279000D01*
X128754605Y-85242454D01*
X128581534Y-85170766D01*
X128504182Y-85119081D01*
X128425773Y-85066690D01*
X128293310Y-84934227D01*
X128189235Y-84778467D01*
X128189234Y-84778466D01*
X128117546Y-84605395D01*
X128081000Y-84421667D01*
X128081000Y-84234333D01*
X128117546Y-84050605D01*
X128189234Y-83877534D01*
X128250716Y-83785520D01*
X128293310Y-83721773D01*
X128425773Y-83589310D01*
X128581533Y-83485235D01*
X128581534Y-83485234D01*
X128754605Y-83413546D01*
X128938333Y-83377000D01*
X129125667Y-83377000D01*
X129309395Y-83413546D01*
G37*
G36*
X122422228Y-83509703D02*
G01*
X122577100Y-83573853D01*
X122716481Y-83666985D01*
X122835015Y-83785519D01*
X122928147Y-83924900D01*
X122992297Y-84079772D01*
X123025000Y-84244184D01*
X123025000Y-84411816D01*
X122992297Y-84576228D01*
X122928147Y-84731100D01*
X122835015Y-84870481D01*
X122716481Y-84989015D01*
X122577100Y-85082147D01*
X122422228Y-85146297D01*
X122257816Y-85179000D01*
X122090184Y-85179000D01*
X121925772Y-85146297D01*
X121770900Y-85082147D01*
X121631519Y-84989015D01*
X121512985Y-84870481D01*
X121419853Y-84731100D01*
X121355703Y-84576228D01*
X121323000Y-84411816D01*
X121323000Y-84244184D01*
X121355703Y-84079772D01*
X121419853Y-83924900D01*
X121512985Y-83785519D01*
X121631519Y-83666985D01*
X121770900Y-83573853D01*
X121925772Y-83509703D01*
X122090184Y-83477000D01*
X122257816Y-83477000D01*
X122422228Y-83509703D01*
G37*
G36*
X114802228Y-83509703D02*
G01*
X114957100Y-83573853D01*
X115096481Y-83666985D01*
X115215015Y-83785519D01*
X115308147Y-83924900D01*
X115372297Y-84079772D01*
X115405000Y-84244184D01*
X115405000Y-84411816D01*
X115372297Y-84576228D01*
X115308147Y-84731100D01*
X115215015Y-84870481D01*
X115096481Y-84989015D01*
X114957100Y-85082147D01*
X114802228Y-85146297D01*
X114637816Y-85179000D01*
X114470184Y-85179000D01*
X114305772Y-85146297D01*
X114150900Y-85082147D01*
X114011519Y-84989015D01*
X113892985Y-84870481D01*
X113799853Y-84731100D01*
X113735703Y-84576228D01*
X113703000Y-84411816D01*
X113703000Y-84244184D01*
X113735703Y-84079772D01*
X113799853Y-83924900D01*
X113892985Y-83785519D01*
X114011519Y-83666985D01*
X114150900Y-83573853D01*
X114305772Y-83509703D01*
X114470184Y-83477000D01*
X114637816Y-83477000D01*
X114802228Y-83509703D01*
G37*
G36*
X169707000Y-84617000D02*
G01*
X167605000Y-84617000D01*
X167605000Y-82515000D01*
X169707000Y-82515000D01*
X169707000Y-84617000D01*
G37*
G36*
X159506228Y-81985703D02*
G01*
X159661100Y-82049853D01*
X159800481Y-82142985D01*
X159919015Y-82261519D01*
X160012147Y-82400900D01*
X160076297Y-82555772D01*
X160109000Y-82720184D01*
X160109000Y-82887816D01*
X160076297Y-83052228D01*
X160012147Y-83207100D01*
X159919015Y-83346481D01*
X159800481Y-83465015D01*
X159661100Y-83558147D01*
X159506228Y-83622297D01*
X159341816Y-83655000D01*
X159174184Y-83655000D01*
X159009772Y-83622297D01*
X158854900Y-83558147D01*
X158715519Y-83465015D01*
X158596985Y-83346481D01*
X158503853Y-83207100D01*
X158439703Y-83052228D01*
X158407000Y-82887816D01*
X158407000Y-82720184D01*
X158439703Y-82555772D01*
X158503853Y-82400900D01*
X158596985Y-82261519D01*
X158715519Y-82142985D01*
X158854900Y-82049853D01*
X159009772Y-81985703D01*
X159174184Y-81953000D01*
X159341816Y-81953000D01*
X159506228Y-81985703D01*
G37*
G36*
X134106228Y-81985703D02*
G01*
X134261100Y-82049853D01*
X134400481Y-82142985D01*
X134519015Y-82261519D01*
X134612147Y-82400900D01*
X134676297Y-82555772D01*
X134709000Y-82720184D01*
X134709000Y-82887816D01*
X134676297Y-83052228D01*
X134612147Y-83207100D01*
X134519015Y-83346481D01*
X134400481Y-83465015D01*
X134261100Y-83558147D01*
X134106228Y-83622297D01*
X133941816Y-83655000D01*
X133774184Y-83655000D01*
X133609772Y-83622297D01*
X133454900Y-83558147D01*
X133315519Y-83465015D01*
X133196985Y-83346481D01*
X133103853Y-83207100D01*
X133039703Y-83052228D01*
X133007000Y-82887816D01*
X133007000Y-82720184D01*
X133039703Y-82555772D01*
X133103853Y-82400900D01*
X133196985Y-82261519D01*
X133315519Y-82142985D01*
X133454900Y-82049853D01*
X133609772Y-81985703D01*
X133774184Y-81953000D01*
X133941816Y-81953000D01*
X134106228Y-81985703D01*
G37*
G36*
X111984549Y-80151116D02*
G01*
X112095734Y-80173232D01*
X112305203Y-80259997D01*
X112493720Y-80385960D01*
X112654040Y-80546280D01*
X112734767Y-80667097D01*
X112780004Y-80734799D01*
X112805416Y-80796150D01*
X112866768Y-80944266D01*
X112911000Y-81166636D01*
X112911000Y-81393364D01*
X112866768Y-81615734D01*
X112805416Y-81763850D01*
X112795812Y-81787038D01*
X112780003Y-81825203D01*
X112654040Y-82013720D01*
X112493720Y-82174040D01*
X112305203Y-82300003D01*
X112095734Y-82386768D01*
X112024687Y-82400900D01*
X111873365Y-82431000D01*
X111646635Y-82431000D01*
X111495313Y-82400900D01*
X111424266Y-82386768D01*
X111214797Y-82300003D01*
X111026280Y-82174040D01*
X110865960Y-82013720D01*
X110739997Y-81825203D01*
X110724189Y-81787038D01*
X110714584Y-81763850D01*
X110653232Y-81615734D01*
X110609000Y-81393364D01*
X110609000Y-81166636D01*
X110653232Y-80944266D01*
X110714584Y-80796150D01*
X110739996Y-80734799D01*
X110785233Y-80667097D01*
X110865960Y-80546280D01*
X111026280Y-80385960D01*
X111214797Y-80259997D01*
X111424266Y-80173232D01*
X111535451Y-80151116D01*
X111646635Y-80129000D01*
X111873365Y-80129000D01*
X111984549Y-80151116D01*
G37*
G36*
X114939842Y-80376131D02*
G01*
X115028798Y-80384892D01*
X115200004Y-80436827D01*
X115200007Y-80436828D01*
X115357788Y-80521163D01*
X115496087Y-80634663D01*
X115609587Y-80772962D01*
X115693922Y-80930743D01*
X115693923Y-80930746D01*
X115745858Y-81101952D01*
X115763394Y-81280000D01*
X115745858Y-81458048D01*
X115698024Y-81615734D01*
X115693922Y-81629257D01*
X115609587Y-81787038D01*
X115496087Y-81925337D01*
X115357788Y-82038837D01*
X115200007Y-82123172D01*
X115200004Y-82123173D01*
X115028798Y-82175108D01*
X114939842Y-82183869D01*
X114895365Y-82188250D01*
X114720635Y-82188250D01*
X114676158Y-82183869D01*
X114587202Y-82175108D01*
X114415996Y-82123173D01*
X114415993Y-82123172D01*
X114258212Y-82038837D01*
X114119913Y-81925337D01*
X114006413Y-81787038D01*
X113922078Y-81629257D01*
X113917976Y-81615734D01*
X113870142Y-81458048D01*
X113852606Y-81280000D01*
X113870142Y-81101952D01*
X113922077Y-80930746D01*
X113922078Y-80930743D01*
X114006413Y-80772962D01*
X114119913Y-80634663D01*
X114258212Y-80521163D01*
X114415993Y-80436828D01*
X114415996Y-80436827D01*
X114587202Y-80384892D01*
X114676158Y-80376131D01*
X114720635Y-80371750D01*
X114895365Y-80371750D01*
X114939842Y-80376131D01*
G37*
G36*
X106211335Y-78486962D02*
G01*
X106370410Y-78518604D01*
X106652674Y-78635521D01*
X106906705Y-78805259D01*
X107122741Y-79021295D01*
X107292479Y-79275326D01*
X107409396Y-79557590D01*
X107421213Y-79617000D01*
X107465009Y-79837173D01*
X107469000Y-79857240D01*
X107469000Y-80162760D01*
X107409396Y-80462410D01*
X107292479Y-80744674D01*
X107122741Y-80998705D01*
X106906705Y-81214741D01*
X106652674Y-81384479D01*
X106370410Y-81501396D01*
X106220585Y-81531198D01*
X106070761Y-81561000D01*
X105765239Y-81561000D01*
X105615415Y-81531198D01*
X105465590Y-81501396D01*
X105183326Y-81384479D01*
X104929295Y-81214741D01*
X104713259Y-80998705D01*
X104543521Y-80744674D01*
X104426604Y-80462410D01*
X104367000Y-80162760D01*
X104367000Y-79857240D01*
X104370992Y-79837173D01*
X104414787Y-79617000D01*
X104426604Y-79557590D01*
X104543521Y-79275326D01*
X104713259Y-79021295D01*
X104929295Y-78805259D01*
X105183326Y-78635521D01*
X105465590Y-78518604D01*
X105624665Y-78486962D01*
X105765239Y-78459000D01*
X106070761Y-78459000D01*
X106211335Y-78486962D01*
G37*
G36*
X134106228Y-79445703D02*
G01*
X134261100Y-79509853D01*
X134400481Y-79602985D01*
X134519015Y-79721519D01*
X134612147Y-79860900D01*
X134676297Y-80015772D01*
X134709000Y-80180184D01*
X134709000Y-80347816D01*
X134676297Y-80512228D01*
X134612147Y-80667100D01*
X134519015Y-80806481D01*
X134400481Y-80925015D01*
X134261100Y-81018147D01*
X134106228Y-81082297D01*
X133941816Y-81115000D01*
X133774184Y-81115000D01*
X133609772Y-81082297D01*
X133454900Y-81018147D01*
X133315519Y-80925015D01*
X133196985Y-80806481D01*
X133103853Y-80667100D01*
X133039703Y-80512228D01*
X133007000Y-80347816D01*
X133007000Y-80180184D01*
X133039703Y-80015772D01*
X133103853Y-79860900D01*
X133196985Y-79721519D01*
X133315519Y-79602985D01*
X133454900Y-79509853D01*
X133609772Y-79445703D01*
X133774184Y-79413000D01*
X133941816Y-79413000D01*
X134106228Y-79445703D01*
G37*
G36*
X118104228Y-79445703D02*
G01*
X118259100Y-79509853D01*
X118398481Y-79602985D01*
X118517015Y-79721519D01*
X118610147Y-79860900D01*
X118674297Y-80015772D01*
X118707000Y-80180184D01*
X118707000Y-80347816D01*
X118674297Y-80512228D01*
X118610147Y-80667100D01*
X118517015Y-80806481D01*
X118398481Y-80925015D01*
X118259100Y-81018147D01*
X118104228Y-81082297D01*
X117939816Y-81115000D01*
X117772184Y-81115000D01*
X117607772Y-81082297D01*
X117452900Y-81018147D01*
X117313519Y-80925015D01*
X117194985Y-80806481D01*
X117101853Y-80667100D01*
X117037703Y-80512228D01*
X117005000Y-80347816D01*
X117005000Y-80180184D01*
X117037703Y-80015772D01*
X117101853Y-79860900D01*
X117194985Y-79721519D01*
X117313519Y-79602985D01*
X117452900Y-79509853D01*
X117607772Y-79445703D01*
X117772184Y-79413000D01*
X117939816Y-79413000D01*
X118104228Y-79445703D01*
G37*
G36*
X125724228Y-79445703D02*
G01*
X125879100Y-79509853D01*
X126018481Y-79602985D01*
X126137015Y-79721519D01*
X126230147Y-79860900D01*
X126294297Y-80015772D01*
X126327000Y-80180184D01*
X126327000Y-80347816D01*
X126294297Y-80512228D01*
X126230147Y-80667100D01*
X126137015Y-80806481D01*
X126018481Y-80925015D01*
X125879100Y-81018147D01*
X125724228Y-81082297D01*
X125559816Y-81115000D01*
X125392184Y-81115000D01*
X125227772Y-81082297D01*
X125072900Y-81018147D01*
X124933519Y-80925015D01*
X124814985Y-80806481D01*
X124721853Y-80667100D01*
X124657703Y-80512228D01*
X124625000Y-80347816D01*
X124625000Y-80180184D01*
X124657703Y-80015772D01*
X124721853Y-79860900D01*
X124814985Y-79721519D01*
X124933519Y-79602985D01*
X125072900Y-79509853D01*
X125227772Y-79445703D01*
X125392184Y-79413000D01*
X125559816Y-79413000D01*
X125724228Y-79445703D01*
G37*
G36*
X159506228Y-79445703D02*
G01*
X159661100Y-79509853D01*
X159800481Y-79602985D01*
X159919015Y-79721519D01*
X160012147Y-79860900D01*
X160076297Y-80015772D01*
X160109000Y-80180184D01*
X160109000Y-80347816D01*
X160076297Y-80512228D01*
X160012147Y-80667100D01*
X159919015Y-80806481D01*
X159800481Y-80925015D01*
X159661100Y-81018147D01*
X159506228Y-81082297D01*
X159341816Y-81115000D01*
X159174184Y-81115000D01*
X159009772Y-81082297D01*
X158854900Y-81018147D01*
X158715519Y-80925015D01*
X158596985Y-80806481D01*
X158503853Y-80667100D01*
X158439703Y-80512228D01*
X158407000Y-80347816D01*
X158407000Y-80180184D01*
X158439703Y-80015772D01*
X158503853Y-79860900D01*
X158596985Y-79721519D01*
X158715519Y-79602985D01*
X158854900Y-79509853D01*
X159009772Y-79445703D01*
X159174184Y-79413000D01*
X159341816Y-79413000D01*
X159506228Y-79445703D01*
G37*
G36*
X114939842Y-78090131D02*
G01*
X115028798Y-78098892D01*
X115200004Y-78150827D01*
X115200007Y-78150828D01*
X115357788Y-78235163D01*
X115496087Y-78348663D01*
X115609587Y-78486962D01*
X115693922Y-78644743D01*
X115693923Y-78644746D01*
X115745858Y-78815952D01*
X115763394Y-78994000D01*
X115745858Y-79172048D01*
X115726466Y-79235973D01*
X115693922Y-79343257D01*
X115609587Y-79501038D01*
X115496087Y-79639337D01*
X115357788Y-79752837D01*
X115200007Y-79837172D01*
X115200004Y-79837173D01*
X115028798Y-79889108D01*
X114939842Y-79897869D01*
X114895365Y-79902250D01*
X114720635Y-79902250D01*
X114676158Y-79897869D01*
X114587202Y-79889108D01*
X114415996Y-79837173D01*
X114415993Y-79837172D01*
X114258212Y-79752837D01*
X114119913Y-79639337D01*
X114006413Y-79501038D01*
X113922078Y-79343257D01*
X113889534Y-79235973D01*
X113870142Y-79172048D01*
X113852606Y-78994000D01*
X113870142Y-78815952D01*
X113922077Y-78644746D01*
X113922078Y-78644743D01*
X114006413Y-78486962D01*
X114119913Y-78348663D01*
X114258212Y-78235163D01*
X114415993Y-78150828D01*
X114415996Y-78150827D01*
X114587202Y-78098892D01*
X114676158Y-78090131D01*
X114720635Y-78085750D01*
X114895365Y-78085750D01*
X114939842Y-78090131D01*
G37*
G36*
X168962564Y-77555389D02*
G01*
X169153833Y-77634615D01*
X169153835Y-77634616D01*
X169275855Y-77716147D01*
X169325973Y-77749635D01*
X169472365Y-77896027D01*
X169587385Y-78068167D01*
X169666611Y-78259436D01*
X169707000Y-78462484D01*
X169707000Y-78669516D01*
X169666611Y-78872564D01*
X169605005Y-79021295D01*
X169587384Y-79063835D01*
X169472365Y-79235973D01*
X169325973Y-79382365D01*
X169153835Y-79497384D01*
X169153834Y-79497385D01*
X169153833Y-79497385D01*
X168962564Y-79576611D01*
X168759516Y-79617000D01*
X168552484Y-79617000D01*
X168349436Y-79576611D01*
X168158167Y-79497385D01*
X168158166Y-79497385D01*
X168158165Y-79497384D01*
X167986027Y-79382365D01*
X167839635Y-79235973D01*
X167724616Y-79063835D01*
X167706995Y-79021295D01*
X167645389Y-78872564D01*
X167605000Y-78669516D01*
X167605000Y-78462484D01*
X167645389Y-78259436D01*
X167724615Y-78068167D01*
X167839635Y-77896027D01*
X167986027Y-77749635D01*
X168036145Y-77716147D01*
X168158165Y-77634616D01*
X168158167Y-77634615D01*
X168349436Y-77555389D01*
X168552484Y-77515000D01*
X168759516Y-77515000D01*
X168962564Y-77555389D01*
G37*
G36*
X125724228Y-76143703D02*
G01*
X125879100Y-76207853D01*
X126018481Y-76300985D01*
X126137015Y-76419519D01*
X126230147Y-76558900D01*
X126294297Y-76713772D01*
X126327000Y-76878184D01*
X126327000Y-77045816D01*
X126294297Y-77210228D01*
X126230147Y-77365100D01*
X126137015Y-77504481D01*
X126018481Y-77623015D01*
X125879100Y-77716147D01*
X125724228Y-77780297D01*
X125559816Y-77813000D01*
X125392184Y-77813000D01*
X125227772Y-77780297D01*
X125072900Y-77716147D01*
X124933519Y-77623015D01*
X124814985Y-77504481D01*
X124721853Y-77365100D01*
X124657703Y-77210228D01*
X124625000Y-77045816D01*
X124625000Y-76878184D01*
X124657703Y-76713772D01*
X124721853Y-76558900D01*
X124814985Y-76419519D01*
X124933519Y-76300985D01*
X125072900Y-76207853D01*
X125227772Y-76143703D01*
X125392184Y-76111000D01*
X125559816Y-76111000D01*
X125724228Y-76143703D01*
G37*
G36*
X118104228Y-76143703D02*
G01*
X118259100Y-76207853D01*
X118398481Y-76300985D01*
X118517015Y-76419519D01*
X118610147Y-76558900D01*
X118674297Y-76713772D01*
X118707000Y-76878184D01*
X118707000Y-77045816D01*
X118674297Y-77210228D01*
X118610147Y-77365100D01*
X118517015Y-77504481D01*
X118398481Y-77623015D01*
X118259100Y-77716147D01*
X118104228Y-77780297D01*
X117939816Y-77813000D01*
X117772184Y-77813000D01*
X117607772Y-77780297D01*
X117452900Y-77716147D01*
X117313519Y-77623015D01*
X117194985Y-77504481D01*
X117101853Y-77365100D01*
X117037703Y-77210228D01*
X117005000Y-77045816D01*
X117005000Y-76878184D01*
X117037703Y-76713772D01*
X117101853Y-76558900D01*
X117194985Y-76419519D01*
X117313519Y-76300985D01*
X117452900Y-76207853D01*
X117607772Y-76143703D01*
X117772184Y-76111000D01*
X117939816Y-76111000D01*
X118104228Y-76143703D01*
G37*
G36*
X115759000Y-77616250D02*
G01*
X113857000Y-77616250D01*
X113857000Y-75799750D01*
X115759000Y-75799750D01*
X115759000Y-77616250D01*
G37*
G36*
X129983000Y-77151000D02*
G01*
X128081000Y-77151000D01*
X128081000Y-75249000D01*
X129983000Y-75249000D01*
X129983000Y-77151000D01*
G37*
G36*
X107469000Y-76481000D02*
G01*
X104367000Y-76481000D01*
X104367000Y-73379000D01*
X107469000Y-73379000D01*
X107469000Y-76481000D01*
G37*
G36*
X112911000Y-74811000D02*
G01*
X110609000Y-74811000D01*
X110609000Y-72509000D01*
X112911000Y-72509000D01*
X112911000Y-74811000D01*
G37*
G36*
X129309395Y-72745546D02*
G01*
X129482466Y-72817234D01*
X129482467Y-72817235D01*
X129638227Y-72921310D01*
X129770690Y-73053773D01*
X129813284Y-73117520D01*
X129874766Y-73209534D01*
X129946454Y-73382605D01*
X129983000Y-73566333D01*
X129983000Y-73753667D01*
X129946454Y-73937395D01*
X129874766Y-74110466D01*
X129874765Y-74110467D01*
X129770690Y-74266227D01*
X129638227Y-74398690D01*
X129615092Y-74414148D01*
X129482466Y-74502766D01*
X129309395Y-74574454D01*
X129125667Y-74611000D01*
X128938333Y-74611000D01*
X128754605Y-74574454D01*
X128581534Y-74502766D01*
X128448908Y-74414148D01*
X128425773Y-74398690D01*
X128293310Y-74266227D01*
X128189235Y-74110467D01*
X128189234Y-74110466D01*
X128117546Y-73937395D01*
X128081000Y-73753667D01*
X128081000Y-73566333D01*
X128117546Y-73382605D01*
X128189234Y-73209534D01*
X128250716Y-73117520D01*
X128293310Y-73053773D01*
X128425773Y-72921310D01*
X128581533Y-72817235D01*
X128581534Y-72817234D01*
X128754605Y-72745546D01*
X128938333Y-72709000D01*
X129125667Y-72709000D01*
X129309395Y-72745546D01*
G37*
G36*
X122422228Y-72841703D02*
G01*
X122577100Y-72905853D01*
X122716481Y-72998985D01*
X122835015Y-73117519D01*
X122928147Y-73256900D01*
X122992297Y-73411772D01*
X123025000Y-73576184D01*
X123025000Y-73743816D01*
X122992297Y-73908228D01*
X122928147Y-74063100D01*
X122835015Y-74202481D01*
X122716481Y-74321015D01*
X122577100Y-74414147D01*
X122422228Y-74478297D01*
X122257816Y-74511000D01*
X122090184Y-74511000D01*
X121925772Y-74478297D01*
X121770900Y-74414147D01*
X121631519Y-74321015D01*
X121512985Y-74202481D01*
X121419853Y-74063100D01*
X121355703Y-73908228D01*
X121323000Y-73743816D01*
X121323000Y-73576184D01*
X121355703Y-73411772D01*
X121419853Y-73256900D01*
X121512985Y-73117519D01*
X121631519Y-72998985D01*
X121770900Y-72905853D01*
X121925772Y-72841703D01*
X122090184Y-72809000D01*
X122257816Y-72809000D01*
X122422228Y-72841703D01*
G37*
G36*
X114802228Y-72841703D02*
G01*
X114957100Y-72905853D01*
X115096481Y-72998985D01*
X115215015Y-73117519D01*
X115308147Y-73256900D01*
X115372297Y-73411772D01*
X115405000Y-73576184D01*
X115405000Y-73743816D01*
X115372297Y-73908228D01*
X115308147Y-74063100D01*
X115215015Y-74202481D01*
X115096481Y-74321015D01*
X114957100Y-74414147D01*
X114802228Y-74478297D01*
X114637816Y-74511000D01*
X114470184Y-74511000D01*
X114305772Y-74478297D01*
X114150900Y-74414147D01*
X114011519Y-74321015D01*
X113892985Y-74202481D01*
X113799853Y-74063100D01*
X113735703Y-73908228D01*
X113703000Y-73743816D01*
X113703000Y-73576184D01*
X113735703Y-73411772D01*
X113799853Y-73256900D01*
X113892985Y-73117519D01*
X114011519Y-72998985D01*
X114150900Y-72905853D01*
X114305772Y-72841703D01*
X114470184Y-72809000D01*
X114637816Y-72809000D01*
X114802228Y-72841703D01*
G37*
G36*
X142361228Y-71190703D02*
G01*
X142516100Y-71254853D01*
X142655481Y-71347985D01*
X142774015Y-71466519D01*
X142867147Y-71605900D01*
X142931297Y-71760772D01*
X142964000Y-71925184D01*
X142964000Y-72092816D01*
X142931297Y-72257228D01*
X142867147Y-72412100D01*
X142774015Y-72551481D01*
X142655481Y-72670015D01*
X142516100Y-72763147D01*
X142361228Y-72827297D01*
X142196816Y-72860000D01*
X142029184Y-72860000D01*
X141864772Y-72827297D01*
X141709900Y-72763147D01*
X141570519Y-72670015D01*
X141451985Y-72551481D01*
X141358853Y-72412100D01*
X141294703Y-72257228D01*
X141262000Y-72092816D01*
X141262000Y-71925184D01*
X141294703Y-71760772D01*
X141358853Y-71605900D01*
X141451985Y-71466519D01*
X141570519Y-71347985D01*
X141709900Y-71254853D01*
X141864772Y-71190703D01*
X142029184Y-71158000D01*
X142196816Y-71158000D01*
X142361228Y-71190703D01*
G37*
G36*
X139821228Y-71190703D02*
G01*
X139976100Y-71254853D01*
X140115481Y-71347985D01*
X140234015Y-71466519D01*
X140327147Y-71605900D01*
X140391297Y-71760772D01*
X140424000Y-71925184D01*
X140424000Y-72092816D01*
X140391297Y-72257228D01*
X140327147Y-72412100D01*
X140234015Y-72551481D01*
X140115481Y-72670015D01*
X139976100Y-72763147D01*
X139821228Y-72827297D01*
X139656816Y-72860000D01*
X139489184Y-72860000D01*
X139324772Y-72827297D01*
X139169900Y-72763147D01*
X139030519Y-72670015D01*
X138911985Y-72551481D01*
X138818853Y-72412100D01*
X138754703Y-72257228D01*
X138722000Y-72092816D01*
X138722000Y-71925184D01*
X138754703Y-71760772D01*
X138818853Y-71605900D01*
X138911985Y-71466519D01*
X139030519Y-71347985D01*
X139169900Y-71254853D01*
X139324772Y-71190703D01*
X139489184Y-71158000D01*
X139656816Y-71158000D01*
X139821228Y-71190703D01*
G37*
G36*
X137281228Y-71190703D02*
G01*
X137436100Y-71254853D01*
X137575481Y-71347985D01*
X137694015Y-71466519D01*
X137787147Y-71605900D01*
X137851297Y-71760772D01*
X137884000Y-71925184D01*
X137884000Y-72092816D01*
X137851297Y-72257228D01*
X137787147Y-72412100D01*
X137694015Y-72551481D01*
X137575481Y-72670015D01*
X137436100Y-72763147D01*
X137281228Y-72827297D01*
X137116816Y-72860000D01*
X136949184Y-72860000D01*
X136784772Y-72827297D01*
X136629900Y-72763147D01*
X136490519Y-72670015D01*
X136371985Y-72551481D01*
X136278853Y-72412100D01*
X136214703Y-72257228D01*
X136182000Y-72092816D01*
X136182000Y-71925184D01*
X136214703Y-71760772D01*
X136278853Y-71605900D01*
X136371985Y-71466519D01*
X136490519Y-71347985D01*
X136629900Y-71254853D01*
X136784772Y-71190703D01*
X136949184Y-71158000D01*
X137116816Y-71158000D01*
X137281228Y-71190703D01*
G37*
G36*
X171571228Y-71190703D02*
G01*
X171726100Y-71254853D01*
X171865481Y-71347985D01*
X171984015Y-71466519D01*
X172077147Y-71605900D01*
X172141297Y-71760772D01*
X172174000Y-71925184D01*
X172174000Y-72092816D01*
X172141297Y-72257228D01*
X172077147Y-72412100D01*
X171984015Y-72551481D01*
X171865481Y-72670015D01*
X171726100Y-72763147D01*
X171571228Y-72827297D01*
X171406816Y-72860000D01*
X171239184Y-72860000D01*
X171074772Y-72827297D01*
X170919900Y-72763147D01*
X170780519Y-72670015D01*
X170661985Y-72551481D01*
X170568853Y-72412100D01*
X170504703Y-72257228D01*
X170472000Y-72092816D01*
X170472000Y-71925184D01*
X170504703Y-71760772D01*
X170568853Y-71605900D01*
X170661985Y-71466519D01*
X170780519Y-71347985D01*
X170919900Y-71254853D01*
X171074772Y-71190703D01*
X171239184Y-71158000D01*
X171406816Y-71158000D01*
X171571228Y-71190703D01*
G37*
G36*
X169031228Y-71190703D02*
G01*
X169186100Y-71254853D01*
X169325481Y-71347985D01*
X169444015Y-71466519D01*
X169537147Y-71605900D01*
X169601297Y-71760772D01*
X169634000Y-71925184D01*
X169634000Y-72092816D01*
X169601297Y-72257228D01*
X169537147Y-72412100D01*
X169444015Y-72551481D01*
X169325481Y-72670015D01*
X169186100Y-72763147D01*
X169031228Y-72827297D01*
X168866816Y-72860000D01*
X168699184Y-72860000D01*
X168534772Y-72827297D01*
X168379900Y-72763147D01*
X168240519Y-72670015D01*
X168121985Y-72551481D01*
X168028853Y-72412100D01*
X167964703Y-72257228D01*
X167932000Y-72092816D01*
X167932000Y-71925184D01*
X167964703Y-71760772D01*
X168028853Y-71605900D01*
X168121985Y-71466519D01*
X168240519Y-71347985D01*
X168379900Y-71254853D01*
X168534772Y-71190703D01*
X168699184Y-71158000D01*
X168866816Y-71158000D01*
X169031228Y-71190703D01*
G37*
G36*
X163951228Y-71190703D02*
G01*
X164106100Y-71254853D01*
X164245481Y-71347985D01*
X164364015Y-71466519D01*
X164457147Y-71605900D01*
X164521297Y-71760772D01*
X164554000Y-71925184D01*
X164554000Y-72092816D01*
X164521297Y-72257228D01*
X164457147Y-72412100D01*
X164364015Y-72551481D01*
X164245481Y-72670015D01*
X164106100Y-72763147D01*
X163951228Y-72827297D01*
X163786816Y-72860000D01*
X163619184Y-72860000D01*
X163454772Y-72827297D01*
X163299900Y-72763147D01*
X163160519Y-72670015D01*
X163041985Y-72551481D01*
X162948853Y-72412100D01*
X162884703Y-72257228D01*
X162852000Y-72092816D01*
X162852000Y-71925184D01*
X162884703Y-71760772D01*
X162948853Y-71605900D01*
X163041985Y-71466519D01*
X163160519Y-71347985D01*
X163299900Y-71254853D01*
X163454772Y-71190703D01*
X163619184Y-71158000D01*
X163786816Y-71158000D01*
X163951228Y-71190703D01*
G37*
G36*
X149981228Y-71190703D02*
G01*
X150136100Y-71254853D01*
X150275481Y-71347985D01*
X150394015Y-71466519D01*
X150487147Y-71605900D01*
X150551297Y-71760772D01*
X150584000Y-71925184D01*
X150584000Y-72092816D01*
X150551297Y-72257228D01*
X150487147Y-72412100D01*
X150394015Y-72551481D01*
X150275481Y-72670015D01*
X150136100Y-72763147D01*
X149981228Y-72827297D01*
X149816816Y-72860000D01*
X149649184Y-72860000D01*
X149484772Y-72827297D01*
X149329900Y-72763147D01*
X149190519Y-72670015D01*
X149071985Y-72551481D01*
X148978853Y-72412100D01*
X148914703Y-72257228D01*
X148882000Y-72092816D01*
X148882000Y-71925184D01*
X148914703Y-71760772D01*
X148978853Y-71605900D01*
X149071985Y-71466519D01*
X149190519Y-71347985D01*
X149329900Y-71254853D01*
X149484772Y-71190703D01*
X149649184Y-71158000D01*
X149816816Y-71158000D01*
X149981228Y-71190703D01*
G37*
G36*
X144901228Y-71190703D02*
G01*
X145056100Y-71254853D01*
X145195481Y-71347985D01*
X145314015Y-71466519D01*
X145407147Y-71605900D01*
X145471297Y-71760772D01*
X145504000Y-71925184D01*
X145504000Y-72092816D01*
X145471297Y-72257228D01*
X145407147Y-72412100D01*
X145314015Y-72551481D01*
X145195481Y-72670015D01*
X145056100Y-72763147D01*
X144901228Y-72827297D01*
X144736816Y-72860000D01*
X144569184Y-72860000D01*
X144404772Y-72827297D01*
X144249900Y-72763147D01*
X144110519Y-72670015D01*
X143991985Y-72551481D01*
X143898853Y-72412100D01*
X143834703Y-72257228D01*
X143802000Y-72092816D01*
X143802000Y-71925184D01*
X143834703Y-71760772D01*
X143898853Y-71605900D01*
X143991985Y-71466519D01*
X144110519Y-71347985D01*
X144249900Y-71254853D01*
X144404772Y-71190703D01*
X144569184Y-71158000D01*
X144736816Y-71158000D01*
X144901228Y-71190703D01*
G37*
G36*
X166491228Y-71190703D02*
G01*
X166646100Y-71254853D01*
X166785481Y-71347985D01*
X166904015Y-71466519D01*
X166997147Y-71605900D01*
X167061297Y-71760772D01*
X167094000Y-71925184D01*
X167094000Y-72092816D01*
X167061297Y-72257228D01*
X166997147Y-72412100D01*
X166904015Y-72551481D01*
X166785481Y-72670015D01*
X166646100Y-72763147D01*
X166491228Y-72827297D01*
X166326816Y-72860000D01*
X166159184Y-72860000D01*
X165994772Y-72827297D01*
X165839900Y-72763147D01*
X165700519Y-72670015D01*
X165581985Y-72551481D01*
X165488853Y-72412100D01*
X165424703Y-72257228D01*
X165392000Y-72092816D01*
X165392000Y-71925184D01*
X165424703Y-71760772D01*
X165488853Y-71605900D01*
X165581985Y-71466519D01*
X165700519Y-71347985D01*
X165839900Y-71254853D01*
X165994772Y-71190703D01*
X166159184Y-71158000D01*
X166326816Y-71158000D01*
X166491228Y-71190703D01*
G37*
G36*
X147441228Y-71190703D02*
G01*
X147596100Y-71254853D01*
X147735481Y-71347985D01*
X147854015Y-71466519D01*
X147947147Y-71605900D01*
X148011297Y-71760772D01*
X148044000Y-71925184D01*
X148044000Y-72092816D01*
X148011297Y-72257228D01*
X147947147Y-72412100D01*
X147854015Y-72551481D01*
X147735481Y-72670015D01*
X147596100Y-72763147D01*
X147441228Y-72827297D01*
X147276816Y-72860000D01*
X147109184Y-72860000D01*
X146944772Y-72827297D01*
X146789900Y-72763147D01*
X146650519Y-72670015D01*
X146531985Y-72551481D01*
X146438853Y-72412100D01*
X146374703Y-72257228D01*
X146342000Y-72092816D01*
X146342000Y-71925184D01*
X146374703Y-71760772D01*
X146438853Y-71605900D01*
X146531985Y-71466519D01*
X146650519Y-71347985D01*
X146789900Y-71254853D01*
X146944772Y-71190703D01*
X147109184Y-71158000D01*
X147276816Y-71158000D01*
X147441228Y-71190703D01*
G37*
G36*
X158871228Y-71190703D02*
G01*
X159026100Y-71254853D01*
X159165481Y-71347985D01*
X159284015Y-71466519D01*
X159377147Y-71605900D01*
X159441297Y-71760772D01*
X159474000Y-71925184D01*
X159474000Y-72092816D01*
X159441297Y-72257228D01*
X159377147Y-72412100D01*
X159284015Y-72551481D01*
X159165481Y-72670015D01*
X159026100Y-72763147D01*
X158871228Y-72827297D01*
X158706816Y-72860000D01*
X158539184Y-72860000D01*
X158374772Y-72827297D01*
X158219900Y-72763147D01*
X158080519Y-72670015D01*
X157961985Y-72551481D01*
X157868853Y-72412100D01*
X157804703Y-72257228D01*
X157772000Y-72092816D01*
X157772000Y-71925184D01*
X157804703Y-71760772D01*
X157868853Y-71605900D01*
X157961985Y-71466519D01*
X158080519Y-71347985D01*
X158219900Y-71254853D01*
X158374772Y-71190703D01*
X158539184Y-71158000D01*
X158706816Y-71158000D01*
X158871228Y-71190703D01*
G37*
G36*
X161411228Y-71190703D02*
G01*
X161566100Y-71254853D01*
X161705481Y-71347985D01*
X161824015Y-71466519D01*
X161917147Y-71605900D01*
X161981297Y-71760772D01*
X162014000Y-71925184D01*
X162014000Y-72092816D01*
X161981297Y-72257228D01*
X161917147Y-72412100D01*
X161824015Y-72551481D01*
X161705481Y-72670015D01*
X161566100Y-72763147D01*
X161411228Y-72827297D01*
X161246816Y-72860000D01*
X161079184Y-72860000D01*
X160914772Y-72827297D01*
X160759900Y-72763147D01*
X160620519Y-72670015D01*
X160501985Y-72551481D01*
X160408853Y-72412100D01*
X160344703Y-72257228D01*
X160312000Y-72092816D01*
X160312000Y-71925184D01*
X160344703Y-71760772D01*
X160408853Y-71605900D01*
X160501985Y-71466519D01*
X160620519Y-71347985D01*
X160759900Y-71254853D01*
X160914772Y-71190703D01*
X161079184Y-71158000D01*
X161246816Y-71158000D01*
X161411228Y-71190703D01*
G37*
G36*
X111984549Y-69483116D02*
G01*
X112095734Y-69505232D01*
X112305203Y-69591997D01*
X112493720Y-69717960D01*
X112654040Y-69878280D01*
X112734767Y-69999097D01*
X112780004Y-70066799D01*
X112805416Y-70128150D01*
X112866768Y-70276266D01*
X112911000Y-70498636D01*
X112911000Y-70725364D01*
X112866768Y-70947734D01*
X112805416Y-71095850D01*
X112795812Y-71119038D01*
X112780003Y-71157203D01*
X112654040Y-71345720D01*
X112493720Y-71506040D01*
X112305203Y-71632003D01*
X112095734Y-71718768D01*
X111984549Y-71740884D01*
X111873365Y-71763000D01*
X111646635Y-71763000D01*
X111535451Y-71740884D01*
X111424266Y-71718768D01*
X111214797Y-71632003D01*
X111026280Y-71506040D01*
X110865960Y-71345720D01*
X110739997Y-71157203D01*
X110724189Y-71119038D01*
X110714584Y-71095850D01*
X110653232Y-70947734D01*
X110609000Y-70725364D01*
X110609000Y-70498636D01*
X110653232Y-70276266D01*
X110714584Y-70128150D01*
X110739996Y-70066799D01*
X110785233Y-69999097D01*
X110865960Y-69878280D01*
X111026280Y-69717960D01*
X111214797Y-69591997D01*
X111424266Y-69505232D01*
X111535451Y-69483116D01*
X111646635Y-69461000D01*
X111873365Y-69461000D01*
X111984549Y-69483116D01*
G37*
G36*
X114939842Y-69708131D02*
G01*
X115028798Y-69716892D01*
X115200004Y-69768827D01*
X115200007Y-69768828D01*
X115357788Y-69853163D01*
X115496087Y-69966663D01*
X115609587Y-70104962D01*
X115693922Y-70262743D01*
X115693923Y-70262746D01*
X115745858Y-70433952D01*
X115763394Y-70612000D01*
X115745858Y-70790048D01*
X115698024Y-70947734D01*
X115693922Y-70961257D01*
X115609587Y-71119038D01*
X115496087Y-71257337D01*
X115357788Y-71370837D01*
X115200007Y-71455172D01*
X115200004Y-71455173D01*
X115028798Y-71507108D01*
X114939842Y-71515869D01*
X114895365Y-71520250D01*
X114720635Y-71520250D01*
X114676158Y-71515869D01*
X114587202Y-71507108D01*
X114415996Y-71455173D01*
X114415993Y-71455172D01*
X114258212Y-71370837D01*
X114119913Y-71257337D01*
X114006413Y-71119038D01*
X113922078Y-70961257D01*
X113917976Y-70947734D01*
X113870142Y-70790048D01*
X113852606Y-70612000D01*
X113870142Y-70433952D01*
X113922077Y-70262746D01*
X113922078Y-70262743D01*
X114006413Y-70104962D01*
X114119913Y-69966663D01*
X114258212Y-69853163D01*
X114415993Y-69768828D01*
X114415996Y-69768827D01*
X114587202Y-69716892D01*
X114676158Y-69708131D01*
X114720635Y-69703750D01*
X114895365Y-69703750D01*
X114939842Y-69708131D01*
G37*
G36*
X106211335Y-67818962D02*
G01*
X106370410Y-67850604D01*
X106652674Y-67967521D01*
X106906705Y-68137259D01*
X107122741Y-68353295D01*
X107292479Y-68607326D01*
X107409396Y-68889590D01*
X107425656Y-68971337D01*
X107465009Y-69169173D01*
X107469000Y-69189240D01*
X107469000Y-69494760D01*
X107409396Y-69794410D01*
X107292479Y-70076674D01*
X107122741Y-70330705D01*
X106906705Y-70546741D01*
X106652674Y-70716479D01*
X106370410Y-70833396D01*
X106220585Y-70863198D01*
X106070761Y-70893000D01*
X105765239Y-70893000D01*
X105615415Y-70863198D01*
X105465590Y-70833396D01*
X105183326Y-70716479D01*
X104929295Y-70546741D01*
X104713259Y-70330705D01*
X104543521Y-70076674D01*
X104426604Y-69794410D01*
X104367000Y-69494760D01*
X104367000Y-69189240D01*
X104370992Y-69169173D01*
X104410344Y-68971337D01*
X104426604Y-68889590D01*
X104543521Y-68607326D01*
X104713259Y-68353295D01*
X104929295Y-68137259D01*
X105183326Y-67967521D01*
X105465590Y-67850604D01*
X105624665Y-67818962D01*
X105765239Y-67791000D01*
X106070761Y-67791000D01*
X106211335Y-67818962D01*
G37*
G36*
X118104228Y-68777703D02*
G01*
X118259100Y-68841853D01*
X118398481Y-68934985D01*
X118517015Y-69053519D01*
X118610147Y-69192900D01*
X118674297Y-69347772D01*
X118707000Y-69512184D01*
X118707000Y-69679816D01*
X118674297Y-69844228D01*
X118610147Y-69999100D01*
X118517015Y-70138481D01*
X118398481Y-70257015D01*
X118259100Y-70350147D01*
X118104228Y-70414297D01*
X117939816Y-70447000D01*
X117772184Y-70447000D01*
X117607772Y-70414297D01*
X117452900Y-70350147D01*
X117313519Y-70257015D01*
X117194985Y-70138481D01*
X117101853Y-69999100D01*
X117037703Y-69844228D01*
X117005000Y-69679816D01*
X117005000Y-69512184D01*
X117037703Y-69347772D01*
X117101853Y-69192900D01*
X117194985Y-69053519D01*
X117313519Y-68934985D01*
X117452900Y-68841853D01*
X117607772Y-68777703D01*
X117772184Y-68745000D01*
X117939816Y-68745000D01*
X118104228Y-68777703D01*
G37*
G36*
X125724228Y-68777703D02*
G01*
X125879100Y-68841853D01*
X126018481Y-68934985D01*
X126137015Y-69053519D01*
X126230147Y-69192900D01*
X126294297Y-69347772D01*
X126327000Y-69512184D01*
X126327000Y-69679816D01*
X126294297Y-69844228D01*
X126230147Y-69999100D01*
X126137015Y-70138481D01*
X126018481Y-70257015D01*
X125879100Y-70350147D01*
X125724228Y-70414297D01*
X125559816Y-70447000D01*
X125392184Y-70447000D01*
X125227772Y-70414297D01*
X125072900Y-70350147D01*
X124933519Y-70257015D01*
X124814985Y-70138481D01*
X124721853Y-69999100D01*
X124657703Y-69844228D01*
X124625000Y-69679816D01*
X124625000Y-69512184D01*
X124657703Y-69347772D01*
X124721853Y-69192900D01*
X124814985Y-69053519D01*
X124933519Y-68934985D01*
X125072900Y-68841853D01*
X125227772Y-68777703D01*
X125392184Y-68745000D01*
X125559816Y-68745000D01*
X125724228Y-68777703D01*
G37*
G36*
X114939842Y-67422131D02*
G01*
X115028798Y-67430892D01*
X115200004Y-67482827D01*
X115200007Y-67482828D01*
X115357788Y-67567163D01*
X115496087Y-67680663D01*
X115609587Y-67818962D01*
X115693922Y-67976743D01*
X115693923Y-67976746D01*
X115745858Y-68147952D01*
X115763394Y-68326000D01*
X115745858Y-68504048D01*
X115714529Y-68607326D01*
X115693922Y-68675257D01*
X115609587Y-68833038D01*
X115496087Y-68971337D01*
X115357788Y-69084837D01*
X115200007Y-69169172D01*
X115200004Y-69169173D01*
X115028798Y-69221108D01*
X114939842Y-69229869D01*
X114895365Y-69234250D01*
X114720635Y-69234250D01*
X114676158Y-69229869D01*
X114587202Y-69221108D01*
X114415996Y-69169173D01*
X114415993Y-69169172D01*
X114258212Y-69084837D01*
X114119913Y-68971337D01*
X114006413Y-68833038D01*
X113922078Y-68675257D01*
X113901471Y-68607326D01*
X113870142Y-68504048D01*
X113852606Y-68326000D01*
X113870142Y-68147952D01*
X113922077Y-67976746D01*
X113922078Y-67976743D01*
X114006413Y-67818962D01*
X114119913Y-67680663D01*
X114258212Y-67567163D01*
X114415993Y-67482828D01*
X114415996Y-67482827D01*
X114587202Y-67430892D01*
X114676158Y-67422131D01*
X114720635Y-67417750D01*
X114895365Y-67417750D01*
X114939842Y-67422131D01*
G37*
G36*
X125724228Y-65475703D02*
G01*
X125879100Y-65539853D01*
X126018481Y-65632985D01*
X126137015Y-65751519D01*
X126230147Y-65890900D01*
X126294297Y-66045772D01*
X126327000Y-66210184D01*
X126327000Y-66377816D01*
X126294297Y-66542228D01*
X126230147Y-66697100D01*
X126137015Y-66836481D01*
X126018481Y-66955015D01*
X125879100Y-67048147D01*
X125724228Y-67112297D01*
X125559816Y-67145000D01*
X125392184Y-67145000D01*
X125227772Y-67112297D01*
X125072900Y-67048147D01*
X124933519Y-66955015D01*
X124814985Y-66836481D01*
X124721853Y-66697100D01*
X124657703Y-66542228D01*
X124625000Y-66377816D01*
X124625000Y-66210184D01*
X124657703Y-66045772D01*
X124721853Y-65890900D01*
X124814985Y-65751519D01*
X124933519Y-65632985D01*
X125072900Y-65539853D01*
X125227772Y-65475703D01*
X125392184Y-65443000D01*
X125559816Y-65443000D01*
X125724228Y-65475703D01*
G37*
G36*
X118104228Y-65475703D02*
G01*
X118259100Y-65539853D01*
X118398481Y-65632985D01*
X118517015Y-65751519D01*
X118610147Y-65890900D01*
X118674297Y-66045772D01*
X118707000Y-66210184D01*
X118707000Y-66377816D01*
X118674297Y-66542228D01*
X118610147Y-66697100D01*
X118517015Y-66836481D01*
X118398481Y-66955015D01*
X118259100Y-67048147D01*
X118104228Y-67112297D01*
X117939816Y-67145000D01*
X117772184Y-67145000D01*
X117607772Y-67112297D01*
X117452900Y-67048147D01*
X117313519Y-66955015D01*
X117194985Y-66836481D01*
X117101853Y-66697100D01*
X117037703Y-66542228D01*
X117005000Y-66377816D01*
X117005000Y-66210184D01*
X117037703Y-66045772D01*
X117101853Y-65890900D01*
X117194985Y-65751519D01*
X117313519Y-65632985D01*
X117452900Y-65539853D01*
X117607772Y-65475703D01*
X117772184Y-65443000D01*
X117939816Y-65443000D01*
X118104228Y-65475703D01*
G37*
G36*
X115759000Y-66948250D02*
G01*
X113857000Y-66948250D01*
X113857000Y-65131750D01*
X115759000Y-65131750D01*
X115759000Y-66948250D01*
G37*
G36*
X129983000Y-66483000D02*
G01*
X128081000Y-66483000D01*
X128081000Y-64581000D01*
X129983000Y-64581000D01*
X129983000Y-66483000D01*
G37*
G36*
X107469000Y-65813000D02*
G01*
X104367000Y-65813000D01*
X104367000Y-62711000D01*
X107469000Y-62711000D01*
X107469000Y-65813000D01*
G37*
G36*
X112911000Y-64143000D02*
G01*
X110609000Y-64143000D01*
X110609000Y-61841000D01*
X112911000Y-61841000D01*
X112911000Y-64143000D01*
G37*
G36*
X129309395Y-62077546D02*
G01*
X129482466Y-62149234D01*
X129482467Y-62149235D01*
X129638227Y-62253310D01*
X129770690Y-62385773D01*
X129813284Y-62449520D01*
X129874766Y-62541534D01*
X129946454Y-62714605D01*
X129983000Y-62898333D01*
X129983000Y-63085667D01*
X129946454Y-63269395D01*
X129874766Y-63442466D01*
X129874765Y-63442467D01*
X129770690Y-63598227D01*
X129638227Y-63730690D01*
X129615092Y-63746148D01*
X129482466Y-63834766D01*
X129309395Y-63906454D01*
X129125667Y-63943000D01*
X128938333Y-63943000D01*
X128754605Y-63906454D01*
X128581534Y-63834766D01*
X128448908Y-63746148D01*
X128425773Y-63730690D01*
X128293310Y-63598227D01*
X128189235Y-63442467D01*
X128189234Y-63442466D01*
X128117546Y-63269395D01*
X128081000Y-63085667D01*
X128081000Y-62898333D01*
X128117546Y-62714605D01*
X128189234Y-62541534D01*
X128250716Y-62449520D01*
X128293310Y-62385773D01*
X128425773Y-62253310D01*
X128581533Y-62149235D01*
X128581534Y-62149234D01*
X128754605Y-62077546D01*
X128938333Y-62041000D01*
X129125667Y-62041000D01*
X129309395Y-62077546D01*
G37*
G36*
X114802228Y-62173703D02*
G01*
X114957100Y-62237853D01*
X115096481Y-62330985D01*
X115215015Y-62449519D01*
X115308147Y-62588900D01*
X115372297Y-62743772D01*
X115405000Y-62908184D01*
X115405000Y-63075816D01*
X115372297Y-63240228D01*
X115308147Y-63395100D01*
X115215015Y-63534481D01*
X115096481Y-63653015D01*
X114957100Y-63746147D01*
X114802228Y-63810297D01*
X114637816Y-63843000D01*
X114470184Y-63843000D01*
X114305772Y-63810297D01*
X114150900Y-63746147D01*
X114011519Y-63653015D01*
X113892985Y-63534481D01*
X113799853Y-63395100D01*
X113735703Y-63240228D01*
X113703000Y-63075816D01*
X113703000Y-62908184D01*
X113735703Y-62743772D01*
X113799853Y-62588900D01*
X113892985Y-62449519D01*
X114011519Y-62330985D01*
X114150900Y-62237853D01*
X114305772Y-62173703D01*
X114470184Y-62141000D01*
X114637816Y-62141000D01*
X114802228Y-62173703D01*
G37*
G36*
X122422228Y-62173703D02*
G01*
X122577100Y-62237853D01*
X122716481Y-62330985D01*
X122835015Y-62449519D01*
X122928147Y-62588900D01*
X122992297Y-62743772D01*
X123025000Y-62908184D01*
X123025000Y-63075816D01*
X122992297Y-63240228D01*
X122928147Y-63395100D01*
X122835015Y-63534481D01*
X122716481Y-63653015D01*
X122577100Y-63746147D01*
X122422228Y-63810297D01*
X122257816Y-63843000D01*
X122090184Y-63843000D01*
X121925772Y-63810297D01*
X121770900Y-63746147D01*
X121631519Y-63653015D01*
X121512985Y-63534481D01*
X121419853Y-63395100D01*
X121355703Y-63240228D01*
X121323000Y-63075816D01*
X121323000Y-62908184D01*
X121355703Y-62743772D01*
X121419853Y-62588900D01*
X121512985Y-62449519D01*
X121631519Y-62330985D01*
X121770900Y-62237853D01*
X121925772Y-62173703D01*
X122090184Y-62141000D01*
X122257816Y-62141000D01*
X122422228Y-62173703D01*
G37*
G36*
X111984549Y-58815116D02*
G01*
X112095734Y-58837232D01*
X112305203Y-58923997D01*
X112493720Y-59049960D01*
X112654040Y-59210280D01*
X112780003Y-59398797D01*
X112780004Y-59398799D01*
X112805416Y-59460150D01*
X112866768Y-59608266D01*
X112911000Y-59830636D01*
X112911000Y-60057364D01*
X112866768Y-60279734D01*
X112805416Y-60427850D01*
X112795812Y-60451038D01*
X112780003Y-60489203D01*
X112654040Y-60677720D01*
X112493720Y-60838040D01*
X112305203Y-60964003D01*
X112095734Y-61050768D01*
X111984549Y-61072884D01*
X111873365Y-61095000D01*
X111646635Y-61095000D01*
X111535451Y-61072884D01*
X111424266Y-61050768D01*
X111214797Y-60964003D01*
X111026280Y-60838040D01*
X110865960Y-60677720D01*
X110739997Y-60489203D01*
X110724189Y-60451038D01*
X110714584Y-60427850D01*
X110653232Y-60279734D01*
X110609000Y-60057364D01*
X110609000Y-59830636D01*
X110653232Y-59608266D01*
X110714584Y-59460150D01*
X110739996Y-59398799D01*
X110739997Y-59398797D01*
X110865960Y-59210280D01*
X111026280Y-59049960D01*
X111214797Y-58923997D01*
X111424266Y-58837232D01*
X111535451Y-58815116D01*
X111646635Y-58793000D01*
X111873365Y-58793000D01*
X111984549Y-58815116D01*
G37*
G36*
X114939842Y-59040131D02*
G01*
X115028798Y-59048892D01*
X115200004Y-59100827D01*
X115200007Y-59100828D01*
X115357788Y-59185163D01*
X115496087Y-59298663D01*
X115609587Y-59436962D01*
X115693922Y-59594743D01*
X115693923Y-59594746D01*
X115745858Y-59765952D01*
X115763394Y-59944000D01*
X115745858Y-60122048D01*
X115698024Y-60279734D01*
X115693922Y-60293257D01*
X115609587Y-60451038D01*
X115496087Y-60589337D01*
X115357788Y-60702837D01*
X115200007Y-60787172D01*
X115200004Y-60787173D01*
X115028798Y-60839108D01*
X114939842Y-60847869D01*
X114895365Y-60852250D01*
X114720635Y-60852250D01*
X114676158Y-60847869D01*
X114587202Y-60839108D01*
X114415996Y-60787173D01*
X114415993Y-60787172D01*
X114258212Y-60702837D01*
X114119913Y-60589337D01*
X114006413Y-60451038D01*
X113922078Y-60293257D01*
X113917976Y-60279734D01*
X113870142Y-60122048D01*
X113852606Y-59944000D01*
X113870142Y-59765952D01*
X113922077Y-59594746D01*
X113922078Y-59594743D01*
X114006413Y-59436962D01*
X114119913Y-59298663D01*
X114258212Y-59185163D01*
X114415993Y-59100828D01*
X114415996Y-59100827D01*
X114587202Y-59048892D01*
X114676158Y-59040131D01*
X114720635Y-59035750D01*
X114895365Y-59035750D01*
X114939842Y-59040131D01*
G37*
G36*
X106211335Y-57150962D02*
G01*
X106370410Y-57182604D01*
X106652674Y-57299521D01*
X106906705Y-57469259D01*
X107122741Y-57685295D01*
X107292479Y-57939326D01*
X107409396Y-58221590D01*
X107409396Y-58221591D01*
X107465009Y-58501173D01*
X107469000Y-58521240D01*
X107469000Y-58826760D01*
X107409396Y-59126410D01*
X107292479Y-59408674D01*
X107122741Y-59662705D01*
X106906705Y-59878741D01*
X106652674Y-60048479D01*
X106370410Y-60165396D01*
X106220585Y-60195198D01*
X106070761Y-60225000D01*
X105765239Y-60225000D01*
X105615415Y-60195198D01*
X105465590Y-60165396D01*
X105183326Y-60048479D01*
X104929295Y-59878741D01*
X104713259Y-59662705D01*
X104543521Y-59408674D01*
X104426604Y-59126410D01*
X104367000Y-58826760D01*
X104367000Y-58521240D01*
X104370992Y-58501173D01*
X104426604Y-58221591D01*
X104426604Y-58221590D01*
X104543521Y-57939326D01*
X104713259Y-57685295D01*
X104929295Y-57469259D01*
X105183326Y-57299521D01*
X105465590Y-57182604D01*
X105624665Y-57150962D01*
X105765239Y-57123000D01*
X106070761Y-57123000D01*
X106211335Y-57150962D01*
G37*
G36*
X117850228Y-58363703D02*
G01*
X118005100Y-58427853D01*
X118144481Y-58520985D01*
X118263015Y-58639519D01*
X118356147Y-58778900D01*
X118420297Y-58933772D01*
X118453000Y-59098184D01*
X118453000Y-59265816D01*
X118420297Y-59430228D01*
X118356147Y-59585100D01*
X118263015Y-59724481D01*
X118144481Y-59843015D01*
X118005100Y-59936147D01*
X117850228Y-60000297D01*
X117685816Y-60033000D01*
X117518184Y-60033000D01*
X117353772Y-60000297D01*
X117198900Y-59936147D01*
X117059519Y-59843015D01*
X116940985Y-59724481D01*
X116847853Y-59585100D01*
X116783703Y-59430228D01*
X116751000Y-59265816D01*
X116751000Y-59098184D01*
X116783703Y-58933772D01*
X116847853Y-58778900D01*
X116940985Y-58639519D01*
X117059519Y-58520985D01*
X117198900Y-58427853D01*
X117353772Y-58363703D01*
X117518184Y-58331000D01*
X117685816Y-58331000D01*
X117850228Y-58363703D01*
G37*
G36*
X125470228Y-58363703D02*
G01*
X125625100Y-58427853D01*
X125764481Y-58520985D01*
X125883015Y-58639519D01*
X125976147Y-58778900D01*
X126040297Y-58933772D01*
X126073000Y-59098184D01*
X126073000Y-59265816D01*
X126040297Y-59430228D01*
X125976147Y-59585100D01*
X125883015Y-59724481D01*
X125764481Y-59843015D01*
X125625100Y-59936147D01*
X125470228Y-60000297D01*
X125305816Y-60033000D01*
X125138184Y-60033000D01*
X124973772Y-60000297D01*
X124818900Y-59936147D01*
X124679519Y-59843015D01*
X124560985Y-59724481D01*
X124467853Y-59585100D01*
X124403703Y-59430228D01*
X124371000Y-59265816D01*
X124371000Y-59098184D01*
X124403703Y-58933772D01*
X124467853Y-58778900D01*
X124560985Y-58639519D01*
X124679519Y-58520985D01*
X124818900Y-58427853D01*
X124973772Y-58363703D01*
X125138184Y-58331000D01*
X125305816Y-58331000D01*
X125470228Y-58363703D01*
G37*
G36*
X114939842Y-56754131D02*
G01*
X115028798Y-56762892D01*
X115200004Y-56814827D01*
X115200007Y-56814828D01*
X115357788Y-56899163D01*
X115496087Y-57012663D01*
X115609587Y-57150962D01*
X115693922Y-57308743D01*
X115693923Y-57308746D01*
X115745858Y-57479952D01*
X115763394Y-57658000D01*
X115745858Y-57836048D01*
X115714529Y-57939326D01*
X115693922Y-58007257D01*
X115609587Y-58165038D01*
X115496087Y-58303337D01*
X115357788Y-58416837D01*
X115200007Y-58501172D01*
X115200004Y-58501173D01*
X115028798Y-58553108D01*
X114939842Y-58561869D01*
X114895365Y-58566250D01*
X114720635Y-58566250D01*
X114676158Y-58561869D01*
X114587202Y-58553108D01*
X114415996Y-58501173D01*
X114415993Y-58501172D01*
X114258212Y-58416837D01*
X114119913Y-58303337D01*
X114006413Y-58165038D01*
X113922078Y-58007257D01*
X113901471Y-57939326D01*
X113870142Y-57836048D01*
X113852606Y-57658000D01*
X113870142Y-57479952D01*
X113922077Y-57308746D01*
X113922078Y-57308743D01*
X114006413Y-57150962D01*
X114119913Y-57012663D01*
X114258212Y-56899163D01*
X114415993Y-56814828D01*
X114415996Y-56814827D01*
X114587202Y-56762892D01*
X114676158Y-56754131D01*
X114720635Y-56749750D01*
X114895365Y-56749750D01*
X114939842Y-56754131D01*
G37*
G36*
X125470228Y-55061703D02*
G01*
X125625100Y-55125853D01*
X125764481Y-55218985D01*
X125883015Y-55337519D01*
X125976147Y-55476900D01*
X126040297Y-55631772D01*
X126073000Y-55796184D01*
X126073000Y-55963816D01*
X126040297Y-56128228D01*
X125976147Y-56283100D01*
X125883015Y-56422481D01*
X125764481Y-56541015D01*
X125625100Y-56634147D01*
X125470228Y-56698297D01*
X125305816Y-56731000D01*
X125138184Y-56731000D01*
X124973772Y-56698297D01*
X124818900Y-56634147D01*
X124679519Y-56541015D01*
X124560985Y-56422481D01*
X124467853Y-56283100D01*
X124403703Y-56128228D01*
X124371000Y-55963816D01*
X124371000Y-55796184D01*
X124403703Y-55631772D01*
X124467853Y-55476900D01*
X124560985Y-55337519D01*
X124679519Y-55218985D01*
X124818900Y-55125853D01*
X124973772Y-55061703D01*
X125138184Y-55029000D01*
X125305816Y-55029000D01*
X125470228Y-55061703D01*
G37*
G36*
X117850228Y-55061703D02*
G01*
X118005100Y-55125853D01*
X118144481Y-55218985D01*
X118263015Y-55337519D01*
X118356147Y-55476900D01*
X118420297Y-55631772D01*
X118453000Y-55796184D01*
X118453000Y-55963816D01*
X118420297Y-56128228D01*
X118356147Y-56283100D01*
X118263015Y-56422481D01*
X118144481Y-56541015D01*
X118005100Y-56634147D01*
X117850228Y-56698297D01*
X117685816Y-56731000D01*
X117518184Y-56731000D01*
X117353772Y-56698297D01*
X117198900Y-56634147D01*
X117059519Y-56541015D01*
X116940985Y-56422481D01*
X116847853Y-56283100D01*
X116783703Y-56128228D01*
X116751000Y-55963816D01*
X116751000Y-55796184D01*
X116783703Y-55631772D01*
X116847853Y-55476900D01*
X116940985Y-55337519D01*
X117059519Y-55218985D01*
X117198900Y-55125853D01*
X117353772Y-55061703D01*
X117518184Y-55029000D01*
X117685816Y-55029000D01*
X117850228Y-55061703D01*
G37*
G36*
X115759000Y-56280250D02*
G01*
X113857000Y-56280250D01*
X113857000Y-54463750D01*
X115759000Y-54463750D01*
X115759000Y-56280250D01*
G37*
G36*
X129729000Y-55815000D02*
G01*
X127827000Y-55815000D01*
X127827000Y-53913000D01*
X129729000Y-53913000D01*
X129729000Y-55815000D01*
G37*
G36*
X107469000Y-55145000D02*
G01*
X104367000Y-55145000D01*
X104367000Y-52043000D01*
X107469000Y-52043000D01*
X107469000Y-55145000D01*
G37*
G36*
X112911000Y-53475000D02*
G01*
X110609000Y-53475000D01*
X110609000Y-51173000D01*
X112911000Y-51173000D01*
X112911000Y-53475000D01*
G37*
G36*
X129055395Y-51409546D02*
G01*
X129228466Y-51481234D01*
X129228467Y-51481235D01*
X129384227Y-51585310D01*
X129516690Y-51717773D01*
X129559284Y-51781520D01*
X129620766Y-51873534D01*
X129692454Y-52046605D01*
X129729000Y-52230333D01*
X129729000Y-52417667D01*
X129692454Y-52601395D01*
X129620766Y-52774466D01*
X129620765Y-52774467D01*
X129516690Y-52930227D01*
X129384227Y-53062690D01*
X129361092Y-53078148D01*
X129228466Y-53166766D01*
X129055395Y-53238454D01*
X128871667Y-53275000D01*
X128684333Y-53275000D01*
X128500605Y-53238454D01*
X128327534Y-53166766D01*
X128194908Y-53078148D01*
X128171773Y-53062690D01*
X128039310Y-52930227D01*
X127935235Y-52774467D01*
X127935234Y-52774466D01*
X127863546Y-52601395D01*
X127827000Y-52417667D01*
X127827000Y-52230333D01*
X127863546Y-52046605D01*
X127935234Y-51873534D01*
X127996716Y-51781520D01*
X128039310Y-51717773D01*
X128171773Y-51585310D01*
X128327533Y-51481235D01*
X128327534Y-51481234D01*
X128500605Y-51409546D01*
X128684333Y-51373000D01*
X128871667Y-51373000D01*
X129055395Y-51409546D01*
G37*
G36*
X114802228Y-51505703D02*
G01*
X114957100Y-51569853D01*
X115096481Y-51662985D01*
X115215015Y-51781519D01*
X115308147Y-51920900D01*
X115372297Y-52075772D01*
X115405000Y-52240184D01*
X115405000Y-52407816D01*
X115372297Y-52572228D01*
X115308147Y-52727100D01*
X115215015Y-52866481D01*
X115096481Y-52985015D01*
X114957100Y-53078147D01*
X114802228Y-53142297D01*
X114637816Y-53175000D01*
X114470184Y-53175000D01*
X114305772Y-53142297D01*
X114150900Y-53078147D01*
X114011519Y-52985015D01*
X113892985Y-52866481D01*
X113799853Y-52727100D01*
X113735703Y-52572228D01*
X113703000Y-52407816D01*
X113703000Y-52240184D01*
X113735703Y-52075772D01*
X113799853Y-51920900D01*
X113892985Y-51781519D01*
X114011519Y-51662985D01*
X114150900Y-51569853D01*
X114305772Y-51505703D01*
X114470184Y-51473000D01*
X114637816Y-51473000D01*
X114802228Y-51505703D01*
G37*
G36*
X122422228Y-51505703D02*
G01*
X122577100Y-51569853D01*
X122716481Y-51662985D01*
X122835015Y-51781519D01*
X122928147Y-51920900D01*
X122992297Y-52075772D01*
X123025000Y-52240184D01*
X123025000Y-52407816D01*
X122992297Y-52572228D01*
X122928147Y-52727100D01*
X122835015Y-52866481D01*
X122716481Y-52985015D01*
X122577100Y-53078147D01*
X122422228Y-53142297D01*
X122257816Y-53175000D01*
X122090184Y-53175000D01*
X121925772Y-53142297D01*
X121770900Y-53078147D01*
X121631519Y-52985015D01*
X121512985Y-52866481D01*
X121419853Y-52727100D01*
X121355703Y-52572228D01*
X121323000Y-52407816D01*
X121323000Y-52240184D01*
X121355703Y-52075772D01*
X121419853Y-51920900D01*
X121512985Y-51781519D01*
X121631519Y-51662985D01*
X121770900Y-51569853D01*
X121925772Y-51505703D01*
X122090184Y-51473000D01*
X122257816Y-51473000D01*
X122422228Y-51505703D01*
G37*
M02*
