M48
; DRILL file {KiCad 5.1.5-52549c5~84~ubuntu18.04.1} date Do 16 Jan 2020 21:55:33 CET
; FORMAT={-:-/ absolute / inch / decimal}
; #@! TF.CreationDate,2020-01-16T21:55:33+01:00
; #@! TF.GenerationSoftware,Kicad,Pcbnew,5.1.5-52549c5~84~ubuntu18.04.1
; #@! TF.FileFunction,Plated,1,2,PTH
FMAT,2
INCH
T1C0.0315
T2C0.0354
T3C0.0394
T4C0.0433
T5C0.0598
%
G90
G05
T1
X4.64Y-4.29
X4.94Y-4.29
X4.64Y-2.74
X4.94Y-2.74
X4.51Y-2.48
X4.81Y-2.48
X4.51Y-4.16
X4.81Y-4.16
X4.51Y-3.74
X4.81Y-3.74
X4.64Y-4.0
X4.94Y-4.0
X4.64Y-3.03
X4.94Y-3.03
X4.63Y-2.33
X4.93Y-2.33
X5.27Y-3.16
X5.27Y-3.26
X5.27Y-3.36
X5.27Y-3.46
X5.27Y-3.56
X5.27Y-3.66
X5.27Y-3.76
X5.27Y-3.86
X5.27Y-3.96
X5.27Y-4.06
X5.27Y-4.16
X5.27Y-4.26
X5.27Y-4.36
X5.27Y-4.46
X5.27Y-4.56
X6.27Y-3.16
X6.27Y-3.26
X6.27Y-3.36
X6.27Y-3.46
X6.27Y-3.56
X6.27Y-3.66
X6.27Y-3.76
X6.27Y-3.86
X6.27Y-3.96
X6.27Y-4.06
X6.27Y-4.16
X6.27Y-4.26
X6.27Y-4.36
X6.27Y-4.46
X6.27Y-4.56
X4.51Y-3.32
X4.81Y-3.32
X4.64Y-3.58
X4.94Y-3.58
X4.51Y-2.06
X4.81Y-2.06
X4.63Y-2.2
X4.93Y-2.2
X4.64Y-3.16
X4.94Y-3.16
X4.51Y-2.9
X4.81Y-2.9
X6.245Y-2.835
X6.345Y-2.835
X6.445Y-2.835
X6.545Y-2.835
X6.645Y-2.835
X6.745Y-2.835
X4.64Y-2.61
X4.94Y-2.61
X4.64Y-3.45
X4.94Y-3.45
X4.48Y-4.78
X4.48Y-4.8784
X4.64Y-3.87
X4.94Y-3.87
X5.395Y-2.835
X5.495Y-2.835
X5.595Y-2.835
X5.695Y-2.835
X5.795Y-2.835
X5.895Y-2.835
X4.64Y-4.42
X4.94Y-4.42
T2
X5.08Y-2.9
X5.08Y-3.0
X5.08Y-4.16
X5.08Y-4.26
X5.08Y-3.74
X5.08Y-3.84
X5.08Y-2.48
X5.08Y-2.58
X5.07Y-2.06
X5.07Y-2.16
X5.08Y-3.32
X5.08Y-3.42
T3
X6.8Y-3.58
X6.8Y-3.68
X6.8Y-3.78
X6.8Y-3.88
X6.8Y-3.98
X6.8Y-4.08
X6.8Y-4.18
X6.8Y-4.28
X6.8Y-4.48
X6.8Y-4.58
X6.8Y-4.68
X6.8Y-4.78
X6.8Y-4.88
X6.64Y-3.0931
X6.64Y-3.29
X4.76Y-4.63
X4.86Y-4.63
X4.96Y-4.63
T4
X4.52Y-4.28
X4.52Y-4.37
X4.52Y-4.46
X4.4Y-3.74
X4.4Y-4.04
X4.4Y-3.32
X4.4Y-3.62
X4.52Y-2.6
X4.52Y-2.69
X4.52Y-2.78
X4.52Y-3.44
X4.52Y-3.53
X4.52Y-3.62
X4.52Y-3.86
X4.52Y-3.95
X4.52Y-4.04
X4.52Y-2.18
X4.52Y-2.27
X4.52Y-2.36
X4.4Y-2.06
X4.4Y-2.36
X4.4Y-2.48
X4.4Y-2.78
X4.4Y-2.9
X4.4Y-3.2
X4.4Y-4.16
X4.4Y-4.46
X4.52Y-3.02
X4.52Y-3.11
X4.52Y-3.2
T5
X4.17Y-2.53
X4.17Y-2.73
X4.17Y-2.95
X4.17Y-3.15
X4.17Y-4.63
X4.17Y-4.83
X4.17Y-4.21
X4.17Y-4.41
X4.17Y-3.79
X4.17Y-3.99
X4.17Y-3.37
X4.17Y-3.57
X4.17Y-2.11
X4.17Y-2.31
T0
M30
